<svg width="710" height="435" viewBox="0 0 710 435" fill="none"
    xmlns="http://www.w3.org/2000/svg">
    <rect width="710" height="435" rx="20" fill="#222445"/>
    <path d="M331.938 55.109C327.986 55.109 325.071 52.0017 325.071 48.0733V48.0342C325.071 44.1646 327.986 40.9595 331.996 40.9595C334.481 40.9595 335.987 41.8194 337.337 43.1288L336.28 44.2623C335.107 43.1679 333.855 42.3862 331.977 42.3862C328.944 42.3862 326.675 44.8487 326.675 47.995V48.0342C326.675 51.2003 328.944 53.6823 331.977 53.6823C333.855 53.6823 335.087 52.9593 336.398 51.7083L337.415 52.7051C336.006 54.1514 334.402 55.109 331.938 55.109ZM348.784 57.5518V54.8745H339.942V44.7705H341.448V53.5064H347.454V44.7705H348.96V53.5064H350.154V57.5518H348.784ZM356.914 55.109C354.156 55.109 351.867 52.9788 351.867 49.8519V49.8127C351.867 46.9007 353.901 44.5555 356.718 44.5555C359.712 44.5555 361.433 46.9398 361.433 49.891C361.433 50.106 361.433 50.2036 361.413 50.3794H353.393C353.608 52.5684 355.153 53.7997 356.953 53.7997C358.362 53.7997 359.301 53.233 360.142 52.3729L361.081 53.2134C360.064 54.3665 358.851 55.109 356.914 55.109ZM353.393 49.2655H359.907C359.75 47.448 358.714 45.8258 356.679 45.8258C354.899 45.8258 353.608 47.3111 353.393 49.2655ZM364.07 54.8745V44.7705H365.576V49.0897H371.622V44.7705H373.109V54.8745H371.622V50.4577H365.576V54.8745H364.07ZM379.499 55.0895C377.62 55.0895 375.723 54.034 375.723 51.9429V51.9037C375.723 49.7931 377.483 48.6401 380.046 48.6401C381.359 48.6401 382.239 48.8159 383.156 49.0701V48.7184C383.156 46.9007 382.043 45.9626 380.146 45.9626C378.951 45.9626 378.012 46.2558 377.073 46.7053L376.625 45.474C377.738 44.9464 378.815 44.6337 380.301 44.6337C381.729 44.6337 382.827 45.005 383.57 45.7477C384.254 46.4317 384.606 47.4284 384.606 48.6988V54.8745H383.156V53.3501C382.453 54.2686 381.3 55.0895 379.499 55.0895ZM379.795 53.8973C381.669 53.8973 383.178 52.7638 383.178 51.1612V50.184C382.413 49.969 381.455 49.754 380.205 49.754C378.308 49.754 377.25 50.5749 377.25 51.8454V51.8842C377.25 53.1547 378.445 53.8973 379.795 53.8973Z" fill="white"/>
    <path d="M129.058 142.765V134.249L127.252 134.81L126.992 133.935L129.332 133.128H130.125V142.765H129.058Z" fill="#5A5D60"/>
    <path d="M312.678 378.817V378.141L315.496 375.659C316.683 374.595 317.116 373.996 317.116 373.22C317.116 372.311 316.395 371.735 315.552 371.735C314.664 371.735 314.087 372.19 313.466 373.065L312.823 372.6C313.544 371.558 314.243 370.948 315.618 370.948C317.016 370.948 318.026 371.879 318.026 373.143V373.165C318.026 374.295 317.427 374.994 316.062 376.18L313.988 378.019H318.103V378.817H312.678ZM323.932 375.559H327.005C326.883 374.495 326.085 373.708 324.975 373.708C324.165 373.708 323.577 374.04 323.078 374.495L322.601 373.919C323.211 373.387 323.932 372.965 325.008 372.965C326.684 372.965 327.893 374.218 327.893 375.947V375.969C327.893 377.576 326.684 378.95 324.986 378.95C323.966 378.95 323.233 378.607 322.568 377.975L323.067 377.388C323.588 377.909 324.188 378.208 324.975 378.208C326.085 378.208 326.928 377.365 327.016 376.279H323.932V375.559ZM330.755 378.817V373.852H328.458V373.087H333.916V373.852H331.609V378.817H330.755ZM336.552 378.939C335.487 378.939 334.411 378.341 334.411 377.155V377.133C334.411 375.936 335.409 375.282 336.862 375.282C337.606 375.282 338.105 375.382 338.626 375.526V375.326C338.626 374.295 337.994 373.763 336.918 373.763C336.241 373.763 335.709 373.93 335.176 374.185L334.921 373.486C335.553 373.187 336.164 373.01 337.007 373.01C337.817 373.01 338.438 373.22 338.859 373.641C339.248 374.029 339.447 374.595 339.447 375.315V378.817H338.626V377.953C338.227 378.474 337.572 378.939 336.552 378.939ZM336.718 378.263C337.783 378.263 338.637 377.62 338.637 376.712V376.157C338.205 376.035 337.661 375.914 336.951 375.914C335.875 375.914 335.276 376.379 335.276 377.099V377.122C335.276 377.842 335.953 378.263 336.718 378.263ZM345.55 373.087L345.539 375.548H346.515L348.59 373.087H349.621L347.181 375.914L349.699 378.817H348.667L346.515 376.301H345.539L345.55 378.817H344.707L344.718 376.301H343.72L341.59 378.817H340.558L343.076 375.925L340.635 373.087H341.678L343.753 375.548H344.718L344.707 373.087H345.55ZM357.464 379.815L357.098 380.38C355.112 379.272 354.025 377.687 354.025 375.636V375.625C354.025 373.597 355.112 372.001 357.098 370.893L357.464 371.458C355.767 372.533 354.891 373.852 354.891 375.636V375.648C354.891 377.41 355.767 378.751 357.464 379.815ZM364.05 380.336V378.817H359.035V373.087H359.889V378.042H363.295V373.087H364.149V378.042H364.826V380.336H364.05ZM368.66 378.95C367.096 378.95 365.798 377.742 365.798 375.969V375.947C365.798 374.295 366.952 372.965 368.549 372.965C370.247 372.965 371.223 374.318 371.223 375.991C371.223 376.113 371.223 376.168 371.212 376.268H366.663C366.785 377.51 367.662 378.208 368.682 378.208C369.481 378.208 370.014 377.886 370.491 377.399L371.023 377.875C370.446 378.529 369.758 378.95 368.66 378.95ZM366.663 375.636H370.357C370.269 374.606 369.681 373.686 368.527 373.686C367.517 373.686 366.785 374.528 366.663 375.636ZM372.717 378.817V373.087H373.571V375.537H376.999V373.087H377.842V378.817H376.999V376.313H373.571V378.817H372.717ZM381.425 378.817V373.852H379.129V373.087H384.587V373.852H382.28V378.817H381.425ZM385.848 380.592V373.087H386.702V374.24C387.179 373.564 387.834 372.965 388.899 372.965C390.274 372.965 391.639 374.052 391.639 375.936V375.958C391.639 377.82 390.286 378.939 388.899 378.939C387.834 378.939 387.146 378.374 386.702 377.72V380.592H385.848ZM388.744 378.175C389.853 378.175 390.763 377.354 390.763 375.969V375.947C390.763 374.584 389.842 373.73 388.744 373.73C387.679 373.73 386.669 374.639 386.669 375.936V375.958C386.669 377.288 387.679 378.175 388.744 378.175ZM392.915 380.38L392.549 379.815C394.246 378.74 395.122 377.421 395.122 375.636V375.625C395.122 373.863 394.246 372.522 392.549 371.458L392.915 370.893C394.901 372.001 395.988 373.586 395.988 375.636V375.648C395.988 377.676 394.901 379.272 392.915 380.38Z" fill="white"/>
    <path d="M318.525 99.148V91.3897H324.005V92.1877H319.39V94.6925H321.831C323.506 94.6925 324.66 95.3908 324.66 96.8427V96.8649C324.66 98.4165 323.34 99.148 321.709 99.148H318.525ZM319.39 98.35H321.742C322.918 98.35 323.783 97.8402 323.783 96.8981V96.8759C323.783 95.9006 322.94 95.4684 321.786 95.4684H319.39V98.35ZM328.788 99.281C327.069 99.281 325.815 97.9289 325.815 96.3107V96.2885C325.815 94.6593 327.069 93.296 328.811 93.296C330.541 93.296 331.795 94.6482 331.795 96.2664V96.2885C331.795 97.9178 330.519 99.281 328.788 99.281ZM328.811 98.5163C330.053 98.5163 330.918 97.5077 330.918 96.3107V96.2885C330.918 95.0583 329.998 94.0497 328.788 94.0497C327.546 94.0497 326.692 95.0583 326.692 96.2664V96.2885C326.692 97.5188 327.601 98.5163 328.811 98.5163ZM335.867 93.3736L338.474 99.148H337.52L335.468 94.4265L333.405 99.148H332.484L335.08 93.3736H335.867ZM339.821 99.148V93.4179H340.675V95.3908H342.428C343.837 95.3908 344.68 96.1001 344.68 97.2528V97.2749C344.68 98.3944 343.859 99.148 342.395 99.148H339.821ZM340.675 98.4165H342.384C343.36 98.4165 343.815 97.9843 343.815 97.2639V97.2528C343.815 96.5767 343.36 96.1001 342.395 96.1112H340.675V98.4165ZM346.083 99.148V93.4179H346.937V98.3722H349.832V93.4179H350.675V98.3722H353.571V93.4179H354.425V99.148H346.083ZM358.949 99.281C357.23 99.281 355.976 97.9289 355.976 96.3107V96.2885C355.976 94.6593 357.23 93.296 358.972 93.296C360.702 93.296 361.956 94.6482 361.956 96.2664V96.2885C361.956 97.9178 360.68 99.281 358.949 99.281ZM358.972 98.5163C360.214 98.5163 361.079 97.5077 361.079 96.3107V96.2885C361.079 95.0583 360.159 94.0497 358.949 94.0497C357.707 94.0497 356.853 95.0583 356.853 96.2664V96.2885C356.853 97.5188 357.762 98.5163 358.972 98.5163ZM363.503 99.148V93.4179H364.358V97.8624L367.841 93.4179H368.662V99.148H367.819V94.6925L364.302 99.148H363.503ZM366.077 92.5756C365.145 92.5756 364.513 92.0769 364.435 91.1902H365.057C365.19 91.6003 365.511 91.8884 366.077 91.8884C366.643 91.8884 366.965 91.6003 367.098 91.1902H367.719C367.641 92.0769 367.009 92.5756 366.077 92.5756ZM373.393 98.5052L373.837 97.8734C374.403 98.2724 375.135 98.5384 375.945 98.5384C376.999 98.5384 377.62 98.1505 377.62 97.5409V97.5299C377.62 96.9203 377.01 96.5989 376.023 96.5989H374.736V95.9117H376.012C376.943 95.9117 377.465 95.5349 377.465 94.9585V94.9474C377.465 94.3822 376.932 94.0164 375.989 94.0164C375.279 94.0164 374.592 94.2492 373.915 94.7258L373.471 94.1273C374.181 93.6064 374.991 93.296 376.012 93.296C377.476 93.296 378.33 93.9499 378.33 94.8809V94.892C378.33 95.6568 377.776 96.0447 377.176 96.222C377.886 96.3661 378.486 96.8205 378.486 97.5853V97.5964C378.486 98.5163 377.587 99.281 375.945 99.281C374.913 99.281 374.048 98.9818 373.393 98.5052ZM381.766 99.2699C380.701 99.2699 379.624 98.6714 379.624 97.4855V97.4634C379.624 96.2664 380.623 95.6124 382.076 95.6124C382.819 95.6124 383.319 95.7122 383.84 95.8563V95.6568C383.84 94.626 383.208 94.094 382.132 94.094C381.455 94.094 380.922 94.2603 380.39 94.5152L380.135 93.8169C380.767 93.5177 381.377 93.3404 382.22 93.3404C383.03 93.3404 383.652 93.5509 384.073 93.9721C384.461 94.36 384.661 94.9253 384.661 95.6457V99.148H383.84V98.2835C383.441 98.8044 382.786 99.2699 381.766 99.2699ZM381.932 98.5938C382.997 98.5938 383.851 97.951 383.851 97.0422V96.488C383.419 96.3661 382.875 96.2442 382.165 96.2442C381.089 96.2442 380.49 96.7097 380.49 97.4301V97.4523C380.49 98.1727 381.166 98.5938 381.932 98.5938ZM389.298 93.3736L391.905 99.148H390.951L388.899 94.4265L386.835 99.148H385.915L388.511 93.3736H389.298Z" fill="white"/>
    <path d="M25.1855 252.194H24.5087L22.0237 249.379C20.9587 248.193 20.3597 247.76 19.5831 247.76C18.6734 247.76 18.0965 248.481 18.0965 249.323C18.0965 250.21 18.5514 250.786 19.4278 251.407L18.9619 252.05C17.919 251.329 17.3089 250.631 17.3089 249.257C17.3089 247.86 18.2408 246.852 19.5054 246.852H19.5276C20.6592 246.852 21.3581 247.45 22.5451 248.813L24.3867 250.886V246.774H25.1855V252.194ZM21.9239 240.95V237.88C20.8589 238.002 20.0712 238.8 20.0712 239.909C20.0712 240.718 20.404 241.305 20.8589 241.804L20.282 242.28C19.7495 241.671 19.3279 240.95 19.3279 239.875C19.3279 238.202 20.5815 236.994 22.3122 236.994H22.3344C23.9429 236.994 25.3186 238.202 25.3186 239.898C25.3186 240.917 24.9747 241.649 24.3423 242.314L23.7544 241.815C24.2758 241.294 24.5753 240.696 24.5753 239.909C24.5753 238.8 23.7322 237.958 22.645 237.869V240.95H21.9239ZM25.1855 234.135H20.2154V236.429H19.45V230.976H20.2154V233.281H25.1855V234.135ZM25.3075 228.343C25.3075 229.407 24.7084 230.482 23.5214 230.482H23.4992C22.3011 230.482 21.6465 229.484 21.6465 228.032C21.6465 227.29 21.7464 226.791 21.8906 226.27H21.6909C20.6592 226.27 20.1267 226.902 20.1267 227.977C20.1267 228.653 20.2931 229.185 20.5483 229.717L19.8494 229.972C19.5498 229.34 19.3723 228.731 19.3723 227.888C19.3723 227.079 19.5831 226.459 20.0047 226.037C20.393 225.65 20.9587 225.45 21.6798 225.45H25.1855V226.27H24.3201C24.8415 226.669 25.3075 227.323 25.3075 228.343ZM24.6308 228.177C24.6308 227.113 23.9873 226.259 23.0776 226.259H22.5229C22.4009 226.691 22.2789 227.234 22.2789 227.944C22.2789 229.019 22.7448 229.617 23.4659 229.617H23.4881C24.2092 229.617 24.6308 228.941 24.6308 228.177ZM19.45 219.353L21.9128 219.364V218.389L19.45 216.316V215.286L22.2789 217.724L25.1855 215.208V216.239L22.6672 218.389V219.364L25.1855 219.353V220.195L22.6672 220.184V221.182L25.1855 223.31V224.341L22.29 221.825L19.45 224.263V223.221L21.9128 221.149V220.184L19.45 220.195V219.353ZM26.1839 207.45L26.7497 207.816C25.6403 209.8 24.0539 210.886 22.0015 210.886H21.9904C19.9603 210.886 18.3628 209.8 17.2534 207.816L17.8192 207.45C18.8953 209.146 20.2154 210.021 22.0015 210.021H22.0126C23.7765 210.021 25.1189 209.146 26.1839 207.45ZM25.3186 203.634C25.3186 205.318 23.954 206.571 22.3454 206.571H22.3233C20.6925 206.571 19.3279 205.318 19.3279 203.634C19.3279 202.547 19.7717 201.882 20.3486 201.339L20.9476 201.905C20.4706 202.359 20.0823 202.858 20.0823 203.645C20.0823 204.808 21.0586 205.695 22.3011 205.695H22.3233C23.5658 205.695 24.5531 204.786 24.5531 203.589C24.5531 202.847 24.187 202.293 23.6989 201.838L24.2092 201.295C24.8637 201.871 25.3186 202.559 25.3186 203.634ZM19.4056 197.102L25.1855 194.497V195.45L20.4595 197.501L25.1855 199.562V200.482L19.4056 197.889V197.102ZM25.3186 190.94C25.3186 192.502 24.1094 193.799 22.3344 193.799H22.3122C20.6592 193.799 19.3279 192.646 19.3279 191.05C19.3279 189.355 20.6814 188.379 22.3565 188.379C22.4786 188.379 22.534 188.379 22.6339 188.39V192.935C23.8764 192.813 24.5753 191.937 24.5753 190.917C24.5753 190.119 24.2536 189.587 23.7654 189.111L24.2425 188.579C24.897 189.155 25.3186 189.842 25.3186 190.94ZM22.0015 192.935V189.244C20.9698 189.332 20.049 189.92 20.049 191.073C20.049 192.081 20.8922 192.813 22.0015 192.935ZM25.1855 186.885H19.45V183.992C19.45 182.795 19.9936 182.053 20.9254 182.053H20.9365C21.6355 182.053 22.0348 182.463 22.2456 183.084C22.4564 182.33 22.8447 181.831 23.6323 181.831H23.6434C24.6308 181.831 25.1965 182.662 25.1855 183.992V186.885ZM21.9572 186.043V184.17C21.9572 183.339 21.58 182.917 21.0031 182.917H20.992C20.4706 182.917 20.1267 183.327 20.1378 184.092V186.043H21.9572ZM22.6228 186.043H24.4976V184.015C24.4976 183.161 24.1426 182.685 23.599 182.685H23.5879C23 182.685 22.6117 183.172 22.6228 184.103V186.043ZM25.3075 178.565C25.3075 179.629 24.7084 180.704 23.5214 180.704H23.4992C22.3011 180.704 21.6465 179.707 21.6465 178.255C21.6465 177.512 21.7464 177.014 21.8906 176.493H21.6909C20.6592 176.493 20.1267 177.125 20.1267 178.2C20.1267 178.876 20.2931 179.408 20.5483 179.94L19.8494 180.195C19.5498 179.563 19.3723 178.953 19.3723 178.111C19.3723 177.302 19.5831 176.681 20.0047 176.26C20.393 175.872 20.9587 175.673 21.6798 175.673H25.1855V176.493H24.3201C24.8415 176.892 25.3075 177.546 25.3075 178.565ZM24.6308 178.399C24.6308 177.335 23.9873 176.482 23.0776 176.482H22.5229C22.4009 176.914 22.2789 177.457 22.2789 178.166C22.2789 179.241 22.7448 179.84 23.4659 179.84H23.4881C24.2092 179.84 24.6308 179.164 24.6308 178.399ZM26.7497 173.821L26.1839 174.186C25.1078 172.491 23.7876 171.615 22.0015 171.615H21.9904C20.2265 171.615 18.8842 172.491 17.8192 174.186L17.2534 173.821C18.3628 171.837 19.9492 170.75 22.0015 170.75H22.0126C24.0428 170.75 25.6403 171.837 26.7497 173.821Z" fill="white"/>
    <path d="M355 69.7417C297.46 69.7417 241.992 62.3897 198.8 49.0528C198.615 49.0158 198.541 48.7942 198.578 48.6094C198.615 48.4247 198.8 48.3139 198.985 48.3508C242.103 61.6878 297.497 69.0397 355 69.0397C412.503 69.0397 467.897 61.6878 511.015 48.3508C511.2 48.3139 511.385 48.4247 511.422 48.6094C511.459 48.7942 511.385 49.0158 511.2 49.0528C468.008 62.3897 412.54 69.7417 355 69.7417Z" fill="white"/>
    <path d="M129.612 156.561C139.313 156.561 147.177 148.704 147.177 139.012C147.177 129.32 139.313 121.464 129.612 121.464C119.911 121.464 112.047 129.32 112.047 139.012C112.047 148.704 119.911 156.561 129.612 156.561Z" stroke="#9DA0A5" stroke-width="2" stroke-miterlimit="10"/>
    <path d="M102.358 144.111C104.707 144.111 106.611 142.208 106.611 139.862C106.611 137.516 104.707 135.614 102.358 135.614C100.01 135.614 98.1057 137.516 98.1057 139.862C98.1057 142.208 100.01 144.111 102.358 144.111Z" fill="#FF0000"/>
    <path d="M156.718 144.111C159.066 144.111 160.97 142.208 160.97 139.862C160.97 137.516 159.066 135.614 156.718 135.614C154.369 135.614 152.465 137.516 152.465 139.862C152.465 142.208 154.369 144.111 156.718 144.111Z" fill="#FF0000"/>
    <path d="M147.103 164.061C149.452 164.061 151.356 162.158 151.356 159.812C151.356 157.466 149.452 155.563 147.103 155.563C144.755 155.563 142.851 157.466 142.851 159.812C142.851 162.158 144.755 164.061 147.103 164.061Z" fill="#FF0000"/>
    <path d="M111.973 164.061C114.321 164.061 116.225 162.158 116.225 159.812C116.225 157.466 114.321 155.563 111.973 155.563C109.624 155.563 107.72 157.466 107.72 159.812C107.72 162.158 109.624 164.061 111.973 164.061Z" fill="#FF0000"/>
    <path d="M225.46 142.765V141.932L228.936 138.87C230.4 137.557 230.933 136.819 230.933 135.862C230.933 134.741 230.044 134.031 229.004 134.031C227.91 134.031 227.198 134.591 226.432 135.671L225.638 135.097C226.528 133.812 227.39 133.06 229.086 133.06C230.81 133.06 232.055 134.208 232.055 135.767V135.794C232.055 137.188 231.316 138.049 229.634 139.512L227.075 141.781H232.151V142.765H225.46Z" fill="#5A5D60"/>
    <path d="M228.716 156.561C238.417 156.561 246.281 148.704 246.281 139.012C246.281 129.32 238.417 121.464 228.716 121.464C219.015 121.464 211.151 129.32 211.151 139.012C211.151 148.704 219.015 156.561 228.716 156.561Z" stroke="#9DA0A5" stroke-width="2" stroke-miterlimit="10"/>
    <path d="M201.463 144.111C203.811 144.111 205.715 142.208 205.715 139.862C205.715 137.516 203.811 135.614 201.463 135.614C199.114 135.614 197.21 137.516 197.21 139.862C197.21 142.208 199.114 144.111 201.463 144.111Z" fill="#FF0000"/>
    <path d="M255.822 144.111C258.17 144.111 260.075 142.208 260.075 139.862C260.075 137.516 258.17 135.614 255.822 135.614C253.473 135.614 251.569 137.516 251.569 139.862C251.569 142.208 253.473 144.111 255.822 144.111Z" fill="#4E506A"/>
    <path d="M246.207 164.061C248.556 164.061 250.46 162.158 250.46 159.812C250.46 157.466 248.556 155.563 246.207 155.563C243.859 155.563 241.955 157.466 241.955 159.812C241.955 162.158 243.859 164.061 246.207 164.061Z" fill="#4E506A"/>
    <path d="M211.077 164.061C213.426 164.061 215.33 162.158 215.33 159.812C215.33 157.466 213.426 155.563 211.077 155.563C208.729 155.563 206.824 157.466 206.824 159.812C206.824 162.158 208.729 164.061 211.077 164.061Z" fill="#4E506A"/>
    <path d="M328.068 142.929C326.467 142.929 325.276 142.246 324.497 141.221L325.276 140.524C326.029 141.439 326.891 141.945 328.081 141.945C329.244 141.945 330.175 141.221 330.175 140.086V140.059C330.175 138.87 329.066 138.213 327.493 138.213H326.877L326.658 137.571L329.682 134.167H325.003V133.197H331.119V133.99L328.109 137.325C329.778 137.475 331.269 138.254 331.269 140.018V140.045C331.269 141.754 329.846 142.929 328.068 142.929Z" fill="#5A5D60"/>
    <path d="M327.82 156.561C337.521 156.561 345.385 148.704 345.385 139.012C345.385 129.32 337.521 121.464 327.82 121.464C318.119 121.464 310.255 129.32 310.255 139.012C310.255 148.704 318.119 156.561 327.82 156.561Z" stroke="#9DA0A5" stroke-width="2" stroke-miterlimit="10"/>
    <path d="M300.567 144.111C302.915 144.111 304.819 142.208 304.819 139.862C304.819 137.516 302.915 135.614 300.567 135.614C298.218 135.614 296.314 137.516 296.314 139.862C296.314 142.208 298.218 144.111 300.567 144.111Z" fill="#FF0000"/>
    <path d="M354.926 144.111C357.274 144.111 359.179 142.208 359.179 139.862C359.179 137.516 357.274 135.614 354.926 135.614C352.577 135.614 350.673 137.516 350.673 139.862C350.673 142.208 352.577 144.111 354.926 144.111Z" fill="#FF0000"/>
    <path d="M345.311 164.061C347.66 164.061 349.564 162.158 349.564 159.812C349.564 157.466 347.66 155.563 345.311 155.563C342.963 155.563 341.059 157.466 341.059 159.812C341.059 162.158 342.963 164.061 345.311 164.061Z" fill="#FF0000"/>
    <path d="M310.181 164.061C312.53 164.061 314.434 162.158 314.434 159.812C314.434 157.466 312.53 155.563 310.181 155.563C307.833 155.563 305.929 157.466 305.929 159.812C305.929 162.158 307.833 164.061 310.181 164.061Z" fill="#FF0000"/>
    <path d="M428.429 142.765V140.496H423.382L423.108 139.717L428.526 133.128H429.469V139.594H430.963V140.496H429.469V142.765H428.429ZM424.406 139.594H428.429V134.659L424.406 139.594Z" fill="#5A5D60"/>
    <path d="M426.924 156.561C436.624 156.561 444.49 148.704 444.49 139.012C444.49 129.32 436.624 121.464 426.924 121.464C417.225 121.464 409.359 129.32 409.359 139.012C409.359 148.704 417.225 156.561 426.924 156.561Z" stroke="#9DA0A5" stroke-width="2" stroke-miterlimit="10"/>
    <path d="M399.671 144.111C402.019 144.111 403.923 142.208 403.923 139.862C403.923 137.516 402.019 135.614 399.671 135.614C397.323 135.614 395.418 137.516 395.418 139.862C395.418 142.208 397.323 144.111 399.671 144.111Z" fill="#FF0000"/>
    <path d="M454.03 144.111C456.378 144.111 458.283 142.208 458.283 139.862C458.283 137.516 456.378 135.614 454.03 135.614C451.682 135.614 449.778 137.516 449.778 139.862C449.778 142.208 451.682 144.111 454.03 144.111Z" fill="#FF0000"/>
    <path d="M444.416 164.061C446.764 164.061 448.668 162.158 448.668 159.812C448.668 157.466 446.764 155.563 444.416 155.563C442.068 155.563 440.163 157.466 440.163 159.812C440.163 162.158 442.068 164.061 444.416 164.061Z" fill="#FF0000"/>
    <path d="M409.285 164.061C411.633 164.061 413.538 162.158 413.538 159.812C413.538 157.466 411.633 155.563 409.285 155.563C406.937 155.563 405.033 157.466 405.033 159.812C405.033 162.158 406.937 164.061 409.285 164.061Z" fill="#FF0000"/>
    <path d="M526.173 142.929C524.805 142.929 523.629 142.287 522.752 141.412L523.466 140.633C524.298 141.453 525.2 141.945 526.188 141.945C527.556 141.945 528.499 141.043 528.499 139.826V139.799C528.499 138.596 527.5 137.79 526.117 137.79C525.296 137.79 524.668 138.022 524.106 138.336L523.381 137.858L523.654 133.197H529.168V134.195H524.601L524.394 137.257C524.956 136.997 525.474 136.833 526.284 136.833C528.144 136.833 529.593 137.94 529.593 139.758V139.785C529.593 141.658 528.184 142.929 526.173 142.929Z" fill="#5A5D60"/>
    <path d="M526.029 156.561C535.728 156.561 543.594 148.704 543.594 139.012C543.594 129.32 535.728 121.464 526.029 121.464C516.329 121.464 508.464 129.32 508.464 139.012C508.464 148.704 516.329 156.561 526.029 156.561Z" stroke="#9DA0A5" stroke-width="2" stroke-miterlimit="10"/>
    <path d="M498.775 144.111C501.123 144.111 503.028 142.208 503.028 139.862C503.028 137.516 501.123 135.614 498.775 135.614C496.427 135.614 494.522 137.516 494.522 139.862C494.522 142.208 496.427 144.111 498.775 144.111Z" fill="#FF0000"/>
    <path d="M553.134 144.111C555.483 144.111 557.387 142.208 557.387 139.862C557.387 137.516 555.483 135.614 553.134 135.614C550.786 135.614 548.882 137.516 548.882 139.862C548.882 142.208 550.786 144.111 553.134 144.111Z" fill="#FF0000"/>
    <path d="M543.52 164.061C545.868 164.061 547.772 162.158 547.772 159.812C547.772 157.466 545.868 155.563 543.52 155.563C541.172 155.563 539.267 157.466 539.267 159.812C539.267 162.158 541.172 164.061 543.52 164.061Z" fill="#FF0000"/>
    <path d="M508.39 164.061C510.738 164.061 512.642 162.158 512.642 159.812C512.642 157.466 510.738 155.563 508.39 155.563C506.041 155.563 504.137 157.466 504.137 159.812C504.137 162.158 506.041 164.061 508.39 164.061Z" fill="#FF0000"/>
    <path d="M183.917 196.868C182.864 196.868 182.002 196.499 181.4 195.898C180.634 195.132 180.196 194.148 180.196 192.193V192.166C180.196 189.254 181.66 186.972 184.177 186.972C185.327 186.972 186.175 187.368 187.01 188.065L186.38 188.899C185.669 188.298 184.998 187.956 184.123 187.956C182.262 187.956 181.304 189.897 181.304 192.057V192.193C181.947 191.264 182.782 190.717 184.041 190.717C185.833 190.717 187.352 191.852 187.352 193.656V193.683C187.352 195.529 185.847 196.868 183.917 196.868ZM183.931 195.911C185.34 195.911 186.243 194.941 186.243 193.724V193.697C186.243 192.535 185.286 191.647 183.904 191.647C182.467 191.647 181.509 192.686 181.509 193.738V193.765C181.509 194.982 182.508 195.911 183.931 195.911Z" fill="#5A5D60"/>
    <path d="M183.971 210.131C193.672 210.131 201.536 202.274 201.536 192.582C201.536 182.89 193.672 175.033 183.971 175.033C174.27 175.033 166.406 182.89 166.406 192.582C166.406 202.274 174.27 210.131 183.971 210.131Z" stroke="#9DA0A5" stroke-width="2" stroke-miterlimit="10"/>
    <path d="M156.718 197.68C159.066 197.68 160.97 195.778 160.97 193.432C160.97 191.085 159.066 189.183 156.718 189.183C154.369 189.183 152.465 191.085 152.465 193.432C152.465 195.778 154.369 197.68 156.718 197.68Z" fill="#FF0000"/>
    <path d="M211.077 197.68C213.426 197.68 215.33 195.778 215.33 193.432C215.33 191.085 213.426 189.183 211.077 189.183C208.729 189.183 206.824 191.085 206.824 193.432C206.824 195.778 208.729 197.68 211.077 197.68Z" fill="#FF0000"/>
    <path d="M201.463 217.63C203.811 217.63 205.715 215.728 205.715 213.382C205.715 211.035 203.811 209.133 201.463 209.133C199.114 209.133 197.21 211.035 197.21 213.382C197.21 215.728 199.114 217.63 201.463 217.63Z" fill="#FF0000"/>
    <path d="M166.332 217.63C168.681 217.63 170.585 215.728 170.585 213.382C170.585 211.035 168.681 209.133 166.332 209.133C163.984 209.133 162.08 211.035 162.08 213.382C162.08 215.728 163.984 217.63 166.332 217.63Z" fill="#FF0000"/>
    <path d="M280.688 196.704L285.012 188.12H279.744V187.135H286.243V187.942L281.893 196.704H280.688Z" fill="#5A5D60"/>
    <path d="M283.076 210.131C292.777 210.131 300.641 202.274 300.641 192.582C300.641 182.89 292.777 175.033 283.076 175.033C273.374 175.033 265.51 182.89 265.51 192.582C265.51 202.274 273.374 210.131 283.076 210.131Z" stroke="#9DA0A5" stroke-width="2" stroke-miterlimit="10"/>
    <path d="M255.822 197.68C258.17 197.68 260.075 195.778 260.075 193.432C260.075 191.085 258.17 189.183 255.822 189.183C253.473 189.183 251.569 191.085 251.569 193.432C251.569 195.778 253.473 197.68 255.822 197.68Z" fill="#4E506A"/>
    <path d="M310.181 197.68C312.53 197.68 314.434 195.778 314.434 193.432C314.434 191.085 312.53 189.183 310.181 189.183C307.833 189.183 305.929 191.085 305.929 193.432C305.929 195.778 307.833 197.68 310.181 197.68Z" fill="#FF0000"/>
    <path d="M300.567 217.63C302.915 217.63 304.819 215.728 304.819 213.382C304.819 211.035 302.915 209.133 300.567 209.133C298.218 209.133 296.314 211.035 296.314 213.382C296.314 215.728 298.218 217.63 300.567 217.63Z" fill="#FF0000"/>
    <path d="M265.436 217.63C267.785 217.63 269.689 215.728 269.689 213.382C269.689 211.035 267.785 209.133 265.436 209.133C263.088 209.133 261.184 211.035 261.184 213.382C261.184 215.728 263.088 217.63 265.436 217.63Z" fill="#4E506A"/>
    <path d="M381.995 196.841C379.957 196.841 378.397 195.734 378.397 194.134V194.107C378.397 192.959 379.218 192.18 380.368 191.756C379.477 191.346 378.726 190.662 378.726 189.555V189.528C378.726 188.052 380.246 186.999 381.995 186.999C383.748 186.999 385.267 188.052 385.267 189.528V189.555C385.267 190.662 384.513 191.346 383.626 191.756C384.761 192.18 385.593 192.959 385.593 194.093V194.121C385.593 195.747 384.036 196.841 381.995 196.841ZM381.995 191.373C383.215 191.373 384.184 190.662 384.184 189.624V189.596C384.184 188.653 383.256 187.942 381.995 187.942C380.738 187.942 379.806 188.639 379.806 189.596V189.624C379.806 190.662 380.778 191.373 381.995 191.373ZM381.995 195.898C383.57 195.898 384.498 195.078 384.498 194.107V194.08C384.498 193.027 383.378 192.262 381.995 192.262C380.601 192.262 379.491 193.027 379.491 194.08V194.107C379.491 195.078 380.423 195.898 381.995 195.898Z" fill="#5A5D60"/>
    <path d="M382.18 210.131C391.879 210.131 399.745 202.274 399.745 192.582C399.745 182.89 391.879 175.033 382.18 175.033C372.48 175.033 364.615 182.89 364.615 192.582C364.615 202.274 372.48 210.131 382.18 210.131Z" stroke="#9DA0A5" stroke-width="2" stroke-miterlimit="10"/>
    <path d="M354.926 197.68C357.274 197.68 359.179 195.778 359.179 193.432C359.179 191.085 357.274 189.183 354.926 189.183C352.577 189.183 350.673 191.085 350.673 193.432C350.673 195.778 352.577 197.68 354.926 197.68Z" fill="#FF0000"/>
    <path d="M409.285 197.68C411.633 197.68 413.538 195.778 413.538 193.432C413.538 191.085 411.633 189.183 409.285 189.183C406.937 189.183 405.033 191.085 405.033 193.432C405.033 195.778 406.937 197.68 409.285 197.68Z" fill="#FF0000"/>
    <path d="M399.671 217.63C402.019 217.63 403.923 215.728 403.923 213.382C403.923 211.035 402.019 209.133 399.671 209.133C397.323 209.133 395.418 211.035 395.418 213.382C395.418 215.728 397.323 217.63 399.671 217.63Z" fill="#FF0000"/>
    <path d="M364.541 217.63C366.889 217.63 368.793 215.728 368.793 213.382C368.793 211.035 366.889 209.133 364.541 209.133C362.192 209.133 360.288 211.035 360.288 213.382C360.288 215.728 362.192 217.63 364.541 217.63Z" fill="#4E506A"/>
    <path d="M480.737 195.884C482.586 195.884 483.584 193.957 483.584 191.893V191.701C482.981 192.631 482.12 193.219 480.873 193.219C478.902 193.219 477.534 191.975 477.534 190.252V190.225C477.534 188.407 478.943 186.972 480.984 186.972C482.079 186.972 482.885 187.341 483.503 187.956C484.227 188.68 484.69 189.747 484.69 191.66V191.688C484.69 194.722 483.077 196.868 480.711 196.868C479.45 196.868 478.577 196.363 477.756 195.693L478.385 194.859C479.165 195.556 479.875 195.884 480.737 195.884ZM480.995 192.289C482.475 192.289 483.377 191.223 483.377 190.129V190.102C483.377 188.899 482.378 187.929 480.944 187.929C479.505 187.929 478.644 188.981 478.644 190.17V190.198C478.644 191.414 479.601 192.289 480.995 192.289Z" fill="#5A5D60"/>
    <path d="M481.284 210.131C490.983 210.131 498.849 202.274 498.849 192.582C498.849 182.89 490.983 175.033 481.284 175.033C471.584 175.033 463.719 182.89 463.719 192.582C463.719 202.274 471.584 210.131 481.284 210.131Z" stroke="#9DA0A5" stroke-width="2" stroke-miterlimit="10"/>
    <path d="M454.03 197.68C456.378 197.68 458.283 195.778 458.283 193.432C458.283 191.085 456.378 189.183 454.03 189.183C451.682 189.183 449.778 191.085 449.778 193.432C449.778 195.778 451.682 197.68 454.03 197.68Z" fill="#FF0000"/>
    <path d="M508.39 197.68C510.738 197.68 512.642 195.778 512.642 193.432C512.642 191.085 510.738 189.183 508.39 189.183C506.041 189.183 504.137 191.085 504.137 193.432C504.137 195.778 506.041 197.68 508.39 197.68Z" fill="#FF0000"/>
    <path d="M498.775 217.63C501.123 217.63 503.028 215.728 503.028 213.382C503.028 211.035 501.123 209.133 498.775 209.133C496.427 209.133 494.522 211.035 494.522 213.382C494.522 215.728 496.427 217.63 498.775 217.63Z" fill="#FF0000"/>
    <path d="M463.645 217.63C465.993 217.63 467.897 215.728 467.897 213.382C467.897 211.035 465.993 209.133 463.645 209.133C461.297 209.133 459.392 211.035 459.392 213.382C459.392 215.728 461.297 217.63 463.645 217.63Z" fill="#FF0000"/>
    <path d="M575.311 196.704V188.188L573.506 188.749L573.247 187.874L575.584 187.067H576.379V196.704H575.311ZM582.651 196.868C580.174 196.868 578.617 194.627 578.617 191.947V191.92C578.617 189.241 580.218 186.972 582.681 186.972C585.144 186.972 586.7 189.213 586.7 191.893V191.92C586.7 194.599 585.114 196.868 582.651 196.868ZM582.681 195.884C584.485 195.884 585.58 194.039 585.58 191.947V191.92C585.58 189.842 584.445 187.956 582.651 187.956C580.858 187.956 579.737 189.788 579.737 191.893V191.92C579.737 193.998 580.872 195.884 582.681 195.884Z" fill="#5A5D60"/>
    <path d="M580.388 210.131C590.087 210.131 597.953 202.274 597.953 192.582C597.953 182.89 590.087 175.033 580.388 175.033C570.688 175.033 562.823 182.89 562.823 192.582C562.823 202.274 570.688 210.131 580.388 210.131Z" stroke="#9DA0A5" stroke-width="2" stroke-miterlimit="10"/>
    <path d="M553.134 197.68C555.483 197.68 557.387 195.778 557.387 193.432C557.387 191.085 555.483 189.183 553.134 189.183C550.786 189.183 548.882 191.085 548.882 193.432C548.882 195.778 550.786 197.68 553.134 197.68Z" fill="#FF0000"/>
    <path d="M607.494 197.68C609.842 197.68 611.746 195.778 611.746 193.432C611.746 191.085 609.842 189.183 607.494 189.183C605.146 189.183 603.241 191.085 603.241 193.432C603.241 195.778 605.146 197.68 607.494 197.68Z" fill="#FF0000"/>
    <path d="M597.879 217.63C600.227 217.63 602.132 215.728 602.132 213.382C602.132 211.035 600.227 209.133 597.879 209.133C595.531 209.133 593.626 211.035 593.626 213.382C593.626 215.728 595.531 217.63 597.879 217.63Z" fill="#FF0000"/>
    <path d="M562.749 217.63C565.097 217.63 567.002 215.728 567.002 213.382C567.002 211.035 565.097 209.133 562.749 209.133C560.401 209.133 558.496 211.035 558.496 213.382C558.496 215.728 560.401 217.63 562.749 217.63Z" fill="#FF0000"/>
    <path d="M126.979 257.663V249.147L125.173 249.707L124.913 248.832L127.252 248.026H128.046V257.663H126.979ZM131.882 257.663V249.147L130.076 249.707L129.816 248.832L132.156 248.026H132.95V257.663H131.882Z" fill="#5A5D60"/>
    <path d="M129.612 271.089C139.313 271.089 147.177 263.232 147.177 253.54C147.177 243.848 139.313 235.992 129.612 235.992C119.911 235.992 112.047 243.848 112.047 253.54C112.047 263.232 119.911 271.089 129.612 271.089Z" stroke="#9DA0A5" stroke-width="2" stroke-miterlimit="10"/>
    <path d="M102.358 258.639C104.707 258.639 106.611 256.736 106.611 254.39C106.611 252.044 104.707 250.141 102.358 250.141C100.01 250.141 98.1057 252.044 98.1057 254.39C98.1057 256.736 100.01 258.639 102.358 258.639Z" fill="#FF0000"/>
    <path d="M156.718 258.639C159.066 258.639 160.97 256.736 160.97 254.39C160.97 252.044 159.066 250.141 156.718 250.141C154.369 250.141 152.465 252.044 152.465 254.39C152.465 256.736 154.369 258.639 156.718 258.639Z" fill="#FF0000"/>
    <path d="M147.103 278.589C149.452 278.589 151.356 276.686 151.356 274.34C151.356 271.994 149.452 270.091 147.103 270.091C144.755 270.091 142.851 271.994 142.851 274.34C142.851 276.686 144.755 278.589 147.103 278.589Z" fill="#FF0000"/>
    <path d="M111.973 278.589C114.321 278.589 116.225 276.686 116.225 274.34C116.225 271.994 114.321 270.091 111.973 270.091C109.624 270.091 107.72 271.994 107.72 274.34C107.72 276.686 109.624 278.589 111.973 278.589Z" fill="#FF0000"/>
    <path d="M224.434 257.663V249.147L222.628 249.707L222.368 248.832L224.708 248.026H225.502V257.663H224.434ZM227.546 257.663V256.829L231.021 253.767C232.485 252.455 233.019 251.716 233.019 250.76C233.019 249.639 232.129 248.928 231.09 248.928C229.995 248.928 229.284 249.488 228.517 250.568L227.724 249.994C228.613 248.709 229.475 247.957 231.172 247.957C232.896 247.957 234.141 249.106 234.141 250.664V250.691C234.141 252.085 233.402 252.947 231.719 254.409L229.16 256.678H234.237V257.663H227.546Z" fill="#5A5D60"/>
    <path d="M228.716 271.089C238.417 271.089 246.281 263.232 246.281 253.54C246.281 243.848 238.417 235.992 228.716 235.992C219.015 235.992 211.151 243.848 211.151 253.54C211.151 263.232 219.015 271.089 228.716 271.089Z" stroke="#9DA0A5" stroke-width="2" stroke-miterlimit="10"/>
    <path d="M201.463 258.639C203.811 258.639 205.715 256.736 205.715 254.39C205.715 252.044 203.811 250.141 201.463 250.141C199.114 250.141 197.21 252.044 197.21 254.39C197.21 256.736 199.114 258.639 201.463 258.639Z" fill="#FF0000"/>
    <path d="M255.822 258.639C258.17 258.639 260.075 256.736 260.075 254.39C260.075 252.044 258.17 250.141 255.822 250.141C253.473 250.141 251.569 252.044 251.569 254.39C251.569 256.736 253.473 258.639 255.822 258.639Z" fill="#FF0000"/>
    <path d="M246.207 278.589C248.556 278.589 250.46 276.686 250.46 274.34C250.46 271.994 248.556 270.091 246.207 270.091C243.859 270.091 241.955 271.994 241.955 274.34C241.955 276.686 243.859 278.589 246.207 278.589Z" fill="#FF0000"/>
    <path d="M211.077 278.589C213.426 278.589 215.33 276.686 215.33 274.34C215.33 271.994 213.426 270.091 211.077 270.091C208.729 270.091 206.824 271.994 206.824 274.34C206.824 276.686 208.729 278.589 211.077 278.589Z" fill="#FF0000"/>
    <path d="M323.443 257.663V249.147L321.637 249.707L321.377 248.832L323.716 248.026H324.51V257.663H323.443ZM330.153 257.827C328.552 257.827 327.361 257.143 326.582 256.118L327.361 255.421C328.114 256.337 328.976 256.842 330.166 256.842C331.329 256.842 332.26 256.118 332.26 254.983V254.956C332.26 253.767 331.151 253.111 329.578 253.111H328.962L328.743 252.468L331.767 249.065H327.088V248.094H333.204V248.887L330.194 252.222C331.863 252.373 333.354 253.152 333.354 254.915V254.942C333.354 256.651 331.931 257.827 330.153 257.827Z" fill="#5A5D60"/>
    <path d="M327.82 271.089C337.521 271.089 345.385 263.232 345.385 253.54C345.385 243.848 337.521 235.992 327.82 235.992C318.119 235.992 310.255 243.848 310.255 253.54C310.255 263.232 318.119 271.089 327.82 271.089Z" stroke="#9DA0A5" stroke-width="2" stroke-miterlimit="10"/>
    <path d="M300.567 258.639C302.915 258.639 304.819 256.736 304.819 254.39C304.819 252.044 302.915 250.141 300.567 250.141C298.218 250.141 296.314 252.044 296.314 254.39C296.314 256.736 298.218 258.639 300.567 258.639Z" fill="#FF0000"/>
    <path d="M354.926 258.639C357.274 258.639 359.179 256.736 359.179 254.39C359.179 252.044 357.274 250.141 354.926 250.141C352.577 250.141 350.673 252.044 350.673 254.39C350.673 256.736 352.577 258.639 354.926 258.639Z" fill="#FF0000"/>
    <path d="M345.311 278.589C347.66 278.589 349.564 276.686 349.564 274.34C349.564 271.994 347.66 270.091 345.311 270.091C342.963 270.091 341.059 271.994 341.059 274.34C341.059 276.686 342.963 278.589 345.311 278.589Z" fill="#FF0000"/>
    <path d="M310.181 278.589C312.53 278.589 314.434 276.686 314.434 274.34C314.434 271.994 312.53 270.091 310.181 270.091C307.833 270.091 305.929 271.994 305.929 274.34C305.929 276.686 307.833 278.589 310.181 278.589Z" fill="#FF0000"/>
    <path d="M422.15 257.663V249.147L420.342 249.707L420.083 248.832L422.424 248.026H423.215V257.663H422.15ZM430.515 257.663V255.393H425.467L425.194 254.614L430.611 248.026H431.554V254.491H433.048V255.393H431.554V257.663H430.515ZM426.492 254.491H430.515V249.557L426.492 254.491Z" fill="#5A5D60"/>
    <path d="M426.924 271.089C436.624 271.089 444.49 263.232 444.49 253.54C444.49 243.848 436.624 235.992 426.924 235.992C417.225 235.992 409.359 243.848 409.359 253.54C409.359 263.232 417.225 271.089 426.924 271.089Z" stroke="#9DA0A5" stroke-width="2" stroke-miterlimit="10"/>
    <path d="M399.671 258.639C402.019 258.639 403.923 256.736 403.923 254.39C403.923 252.044 402.019 250.141 399.671 250.141C397.323 250.141 395.418 252.044 395.418 254.39C395.418 256.736 397.323 258.639 399.671 258.639Z" fill="#4E506A"/>
    <path d="M454.03 258.639C456.378 258.639 458.283 256.736 458.283 254.39C458.283 252.044 456.378 250.141 454.03 250.141C451.682 250.141 449.778 252.044 449.778 254.39C449.778 256.736 451.682 258.639 454.03 258.639Z" fill="#FF0000"/>
    <path d="M444.416 278.589C446.764 278.589 448.668 276.686 448.668 274.34C448.668 271.994 446.764 270.091 444.416 270.091C442.068 270.091 440.163 271.994 440.163 274.34C440.163 276.686 442.068 278.589 444.416 278.589Z" fill="#FF0000"/>
    <path d="M409.285 278.589C411.633 278.589 413.538 276.686 413.538 274.34C413.538 271.994 411.633 270.091 409.285 270.091C406.937 270.091 405.033 271.994 405.033 274.34C405.033 276.686 406.937 278.589 409.285 278.589Z" fill="#4E506A"/>
    <path d="M521.658 257.663V249.147L519.853 249.707L519.591 248.832L521.931 248.026H522.726V257.663H521.658ZM528.259 257.827C526.89 257.827 525.714 257.184 524.838 256.309L525.548 255.53C526.384 256.35 527.286 256.842 528.273 256.842C529.642 256.842 530.584 255.94 530.584 254.724V254.696C530.584 253.493 529.586 252.687 528.203 252.687C527.382 252.687 526.753 252.919 526.191 253.234L525.467 252.755L525.74 248.094H531.254V249.092H526.683L526.48 252.154C527.042 251.894 527.56 251.73 528.366 251.73C530.229 251.73 531.679 252.837 531.679 254.655V254.683C531.679 256.555 530.27 257.827 528.259 257.827Z" fill="#5A5D60"/>
    <path d="M526.029 271.089C535.728 271.089 543.594 263.232 543.594 253.54C543.594 243.848 535.728 235.992 526.029 235.992C516.329 235.992 508.464 243.848 508.464 253.54C508.464 263.232 516.329 271.089 526.029 271.089Z" stroke="#9DA0A5" stroke-width="2" stroke-miterlimit="10"/>
    <path d="M498.775 258.639C501.123 258.639 503.028 256.736 503.028 254.39C503.028 252.044 501.123 250.141 498.775 250.141C496.427 250.141 494.522 252.044 494.522 254.39C494.522 256.736 496.427 258.639 498.775 258.639Z" fill="#FF0000"/>
    <path d="M553.134 258.639C555.483 258.639 557.387 256.736 557.387 254.39C557.387 252.044 555.483 250.141 553.134 250.141C550.786 250.141 548.882 252.044 548.882 254.39C548.882 256.736 550.786 258.639 553.134 258.639Z" fill="#FF0000"/>
    <path d="M543.52 278.589C545.868 278.589 547.772 276.686 547.772 274.34C547.772 271.994 545.868 270.091 543.52 270.091C541.172 270.091 539.267 271.994 539.267 274.34C539.267 276.686 541.172 278.589 543.52 278.589Z" fill="#FF0000"/>
    <path d="M508.39 278.589C510.738 278.589 512.642 276.686 512.642 274.34C512.642 271.994 510.738 270.091 508.39 270.091C506.041 270.091 504.137 271.994 504.137 274.34C504.137 276.686 506.041 278.589 508.39 278.589Z" fill="#FF0000"/>
    <path d="M179.731 318.251V309.735L177.925 310.296L177.665 309.421L180.005 308.614H180.798V318.251H179.731ZM186.742 318.415C185.688 318.415 184.826 318.046 184.224 317.445C183.458 316.679 183.02 315.695 183.02 313.741V313.713C183.02 310.802 184.484 308.519 187.002 308.519C188.151 308.519 189 308.915 189.834 309.612L189.205 310.446C188.493 309.845 187.823 309.503 186.947 309.503C185.086 309.503 184.129 311.444 184.129 313.604V313.741C184.772 312.811 185.606 312.264 186.865 312.264C188.657 312.264 190.176 313.399 190.176 315.203V315.23C190.176 317.076 188.671 318.415 186.742 318.415ZM186.756 317.459C188.165 317.459 189.068 316.488 189.068 315.271V315.244C189.068 314.082 188.11 313.194 186.728 313.194C185.292 313.194 184.334 314.233 184.334 315.285V315.313C184.334 316.529 185.333 317.459 186.756 317.459Z" fill="#5A5D60"/>
    <path d="M183.971 332.047C193.672 332.047 201.536 324.191 201.536 314.499C201.536 304.807 193.672 296.95 183.971 296.95C174.27 296.95 166.406 304.807 166.406 314.499C166.406 324.191 174.27 332.047 183.971 332.047Z" stroke="#9DA0A5" stroke-width="2" stroke-miterlimit="10"/>
    <path d="M156.718 319.597C159.066 319.597 160.97 317.695 160.97 315.348C160.97 313.002 159.066 311.1 156.718 311.1C154.369 311.1 152.465 313.002 152.465 315.348C152.465 317.695 154.369 319.597 156.718 319.597Z" fill="#FF0000"/>
    <path d="M211.077 319.597C213.426 319.597 215.33 317.695 215.33 315.348C215.33 313.002 213.426 311.1 211.077 311.1C208.729 311.1 206.824 313.002 206.824 315.348C206.824 317.695 208.729 319.597 211.077 319.597Z" fill="#FF0000"/>
    <path d="M201.463 339.547C203.811 339.547 205.715 337.645 205.715 335.298C205.715 332.952 203.811 331.05 201.463 331.05C199.114 331.05 197.21 332.952 197.21 335.298C197.21 337.645 199.114 339.547 201.463 339.547Z" fill="#FF0000"/>
    <path d="M166.332 339.547C168.681 339.547 170.585 337.645 170.585 335.298C170.585 332.952 168.681 331.05 166.332 331.05C163.984 331.05 162.08 332.952 162.08 335.298C162.08 337.645 163.984 339.547 166.332 339.547Z" fill="#FF0000"/>
    <path d="M279.184 318.251V309.735L277.378 310.296L277.118 309.421L279.458 308.615H280.251V318.251H279.184ZM283.513 318.251L287.837 309.667H282.569V308.683H289.068V309.489L284.717 318.251H283.513Z" fill="#5A5D60"/>
    <path d="M283.076 332.047C292.777 332.047 300.641 324.191 300.641 314.499C300.641 304.807 292.777 296.95 283.076 296.95C273.374 296.95 265.51 304.807 265.51 314.499C265.51 324.191 273.374 332.047 283.076 332.047Z" stroke="#9DA0A5" stroke-width="2" stroke-miterlimit="10"/>
    <path d="M255.822 319.597C258.17 319.597 260.075 317.695 260.075 315.348C260.075 313.002 258.17 311.1 255.822 311.1C253.473 311.1 251.569 313.002 251.569 315.348C251.569 317.695 253.473 319.597 255.822 319.597Z" fill="#FF0000"/>
    <path d="M310.181 319.597C312.53 319.597 314.434 317.695 314.434 315.348C314.434 313.002 312.53 311.1 310.181 311.1C307.833 311.1 305.929 313.002 305.929 315.348C305.929 317.695 307.833 319.597 310.181 319.597Z" fill="#FF0000"/>
    <path d="M300.567 339.547C302.915 339.547 304.819 337.645 304.819 335.298C304.819 332.952 302.915 331.05 300.567 331.05C298.218 331.05 296.314 332.952 296.314 335.298C296.314 337.645 298.218 339.547 300.567 339.547Z" fill="#FF0000"/>
    <path d="M265.436 339.547C267.785 339.547 269.689 337.645 269.689 335.298C269.689 332.952 267.785 331.05 265.436 331.05C263.088 331.05 261.184 332.952 261.184 335.298C261.184 337.645 263.088 339.547 265.436 339.547Z" fill="#FF0000"/>
    <path d="M378.057 318.251V309.735L376.248 310.296L375.99 309.421L378.33 308.614H379.122V318.251H378.057ZM384.82 318.388C382.783 318.388 381.222 317.281 381.222 315.682V315.654C381.222 314.506 382.043 313.727 383.193 313.303C382.302 312.893 381.551 312.21 381.551 311.102V311.075C381.551 309.599 383.067 308.546 384.82 308.546C386.573 308.546 388.089 309.599 388.089 311.075V311.102C388.089 312.21 387.338 312.893 386.447 313.303C387.582 313.727 388.418 314.506 388.418 315.641V315.668C388.418 317.295 386.858 318.388 384.82 318.388ZM384.82 312.92C386.037 312.92 387.009 312.21 387.009 311.171V311.143C387.009 310.2 386.077 309.489 384.82 309.489C383.563 309.489 382.631 310.186 382.631 311.143V311.171C382.631 312.21 383.604 312.92 384.82 312.92ZM384.82 317.445C386.395 317.445 387.324 316.625 387.324 315.654V315.627C387.324 314.574 386.203 313.809 384.82 313.809C383.426 313.809 382.317 314.574 382.317 315.627V315.654C382.317 316.625 383.249 317.445 384.82 317.445Z" fill="#5A5D60"/>
    <path d="M382.18 332.047C391.879 332.047 399.745 324.191 399.745 314.499C399.745 304.807 391.879 296.95 382.18 296.95C372.48 296.95 364.615 304.807 364.615 314.499C364.615 324.191 372.48 332.047 382.18 332.047Z" stroke="#9DA0A5" stroke-width="2" stroke-miterlimit="10"/>
    <path d="M354.926 319.597C357.274 319.597 359.179 317.695 359.179 315.348C359.179 313.002 357.274 311.1 354.926 311.1C352.577 311.1 350.673 313.002 350.673 315.348C350.673 317.695 352.577 319.597 354.926 319.597Z" fill="#FF0000"/>
    <path d="M409.285 319.597C411.633 319.597 413.538 317.695 413.538 315.348C413.538 313.002 411.633 311.1 409.285 311.1C406.937 311.1 405.033 313.002 405.033 315.348C405.033 317.695 406.937 319.597 409.285 319.597Z" fill="#FF0000"/>
    <path d="M399.671 339.547C402.019 339.547 403.923 337.645 403.923 335.298C403.923 332.952 402.019 331.05 399.671 331.05C397.323 331.05 395.418 332.952 395.418 335.298C395.418 337.645 397.323 339.547 399.671 339.547Z" fill="#FF0000"/>
    <path d="M364.541 339.547C366.889 339.547 368.793 337.645 368.793 335.298C368.793 332.952 366.889 331.05 364.541 331.05C362.192 331.05 360.288 332.952 360.288 335.298C360.288 337.645 362.192 339.547 364.541 339.547Z" fill="#FF0000"/>
    <path d="M476.673 318.251V309.735L474.868 310.296L474.609 309.421L476.946 308.614H477.741V318.251H476.673ZM483.192 317.431C485.037 317.431 486.039 315.504 486.039 313.44V313.248C485.437 314.178 484.575 314.766 483.329 314.766C481.358 314.766 479.99 313.522 479.99 311.799V311.772C479.99 309.954 481.399 308.519 483.44 308.519C484.534 308.519 485.341 308.888 485.954 309.503C486.679 310.227 487.145 311.294 487.145 313.207V313.235C487.145 316.269 485.533 318.415 483.166 318.415C481.905 318.415 481.029 317.91 480.208 317.24L480.84 316.406C481.617 317.103 482.33 317.431 483.192 317.431ZM483.451 313.836C484.93 313.836 485.832 312.77 485.832 311.676V311.649C485.832 310.446 484.834 309.476 483.395 309.476C481.961 309.476 481.099 310.528 481.099 311.717V311.745C481.099 312.961 482.057 313.836 483.451 313.836Z" fill="#5A5D60"/>
    <path d="M481.284 332.047C490.983 332.047 498.849 324.191 498.849 314.499C498.849 304.807 490.983 296.95 481.284 296.95C471.584 296.95 463.719 304.807 463.719 314.499C463.719 324.191 471.584 332.047 481.284 332.047Z" stroke="#9DA0A5" stroke-width="2" stroke-miterlimit="10"/>
    <path d="M454.03 319.597C456.378 319.597 458.283 317.695 458.283 315.348C458.283 313.002 456.378 311.1 454.03 311.1C451.682 311.1 449.778 313.002 449.778 315.348C449.778 317.695 451.682 319.597 454.03 319.597Z" fill="#FF0000"/>
    <path d="M508.39 319.597C510.738 319.597 512.642 317.695 512.642 315.348C512.642 313.002 510.738 311.1 508.39 311.1C506.041 311.1 504.137 313.002 504.137 315.348C504.137 317.695 506.041 319.597 508.39 319.597Z" fill="#FF0000"/>
    <path d="M498.775 339.547C501.123 339.547 503.028 337.645 503.028 335.298C503.028 332.952 501.123 331.05 498.775 331.05C496.427 331.05 494.522 332.952 494.522 335.298C494.522 337.645 496.427 339.547 498.775 339.547Z" fill="#FF0000"/>
    <path d="M463.645 339.547C465.993 339.547 467.897 337.645 467.897 335.298C467.897 332.952 465.993 331.05 463.645 331.05C461.297 331.05 459.392 332.952 459.392 335.298C459.392 337.645 461.297 339.547 463.645 339.547Z" fill="#FF0000"/>
    <path d="M572.241 318.251V317.418L575.718 314.356C577.182 313.043 577.714 312.305 577.714 311.348C577.714 310.227 576.823 309.517 575.784 309.517C574.69 309.517 573.979 310.077 573.214 311.157L572.419 310.583C573.306 309.298 574.172 308.546 575.865 308.546C577.592 308.546 578.835 309.694 578.835 311.253V311.28C578.835 312.674 578.095 313.535 576.413 314.998L573.854 317.267H578.931V318.251H572.241ZM584.659 318.415C582.181 318.415 580.625 316.174 580.625 313.494V313.467C580.625 310.788 582.226 308.519 584.689 308.519C587.151 308.519 588.708 310.761 588.708 313.44V313.467C588.708 316.146 587.122 318.415 584.659 318.415ZM584.689 317.431C586.493 317.431 587.588 315.586 587.588 313.494V313.467C587.588 311.389 586.453 309.503 584.659 309.503C582.866 309.503 581.745 311.335 581.745 313.44V313.467C581.745 315.545 582.88 317.431 584.689 317.431Z" fill="#5A5D60"/>
    <path d="M580.388 332.047C590.087 332.047 597.953 324.191 597.953 314.499C597.953 304.807 590.087 296.95 580.388 296.95C570.688 296.95 562.823 304.807 562.823 314.499C562.823 324.191 570.688 332.047 580.388 332.047Z" stroke="#9DA0A5" stroke-width="2" stroke-miterlimit="10"/>
    <path d="M553.134 319.597C555.483 319.597 557.387 317.695 557.387 315.348C557.387 313.002 555.483 311.1 553.134 311.1C550.786 311.1 548.882 313.002 548.882 315.348C548.882 317.695 550.786 319.597 553.134 319.597Z" fill="#FF0000"/>
    <path d="M607.494 319.597C609.842 319.597 611.746 317.695 611.746 315.348C611.746 313.002 609.842 311.1 607.494 311.1C605.146 311.1 603.241 313.002 603.241 315.348C603.241 317.695 605.146 319.597 607.494 319.597Z" fill="#FF0000"/>
    <path d="M597.879 339.547C600.227 339.547 602.132 337.645 602.132 335.298C602.132 332.952 600.227 331.05 597.879 331.05C595.531 331.05 593.626 332.952 593.626 335.298C593.626 337.645 595.531 339.547 597.879 339.547Z" fill="#FF0000"/>
    <path d="M562.749 339.547C565.097 339.547 567.002 337.645 567.002 335.298C567.002 332.952 565.097 331.05 562.749 331.05C560.401 331.05 558.496 332.952 558.496 335.298C558.496 337.645 560.401 339.547 562.749 339.547Z" fill="#FF0000"/>
    <path d="M39.6787 132.215C42.0273 132.215 43.9313 130.312 43.9313 127.966C43.9313 125.62 42.0273 123.718 39.6787 123.718C37.3302 123.718 35.426 125.62 35.426 127.966C35.426 130.312 37.3302 132.215 39.6787 132.215Z" fill="#2BBE54"/>
    <path d="M220.396 399.693C222.744 399.693 224.649 397.79 224.649 395.444C224.649 393.098 222.744 391.195 220.396 391.195C218.047 391.195 216.143 393.098 216.143 395.444C216.143 397.79 218.047 399.693 220.396 399.693Z" fill="#2BBE54"/>
    <path d="M239.625 399.693C241.973 399.693 243.878 397.79 243.878 395.444C243.878 393.098 241.973 391.195 239.625 391.195C237.276 391.195 235.372 393.098 235.372 395.444C235.372 397.79 237.276 399.693 239.625 399.693Z" fill="#2BBE54"/>
    <path d="M258.854 399.693C261.203 399.693 263.107 397.79 263.107 395.444C263.107 393.098 261.203 391.195 258.854 391.195C256.506 391.195 254.602 393.098 254.602 395.444C254.602 397.79 256.506 399.693 258.854 399.693Z" fill="#2BBE54"/>
    <path d="M278.083 399.693C280.432 399.693 282.336 397.79 282.336 395.444C282.336 393.098 280.432 391.195 278.083 391.195C275.735 391.195 273.831 393.098 273.831 395.444C273.831 397.79 275.735 399.693 278.083 399.693Z" fill="#2BBE54"/>
    <path d="M297.312 399.693C299.661 399.693 301.565 397.79 301.565 395.444C301.565 393.098 299.661 391.195 297.312 391.195C294.964 391.195 293.06 393.098 293.06 395.444C293.06 397.79 294.964 399.693 297.312 399.693Z" fill="#2BBE54"/>
    <path d="M316.542 399.693C318.89 399.693 320.794 397.79 320.794 395.444C320.794 393.098 318.89 391.195 316.542 391.195C314.193 391.195 312.289 393.098 312.289 395.444C312.289 397.79 314.193 399.693 316.542 399.693Z" fill="#4E506A"/>
    <path d="M335.771 399.693C338.119 399.693 340.024 397.79 340.024 395.444C340.024 393.098 338.119 391.195 335.771 391.195C333.422 391.195 331.518 393.098 331.518 395.444C331.518 397.79 333.422 399.693 335.771 399.693Z" fill="#4E506A"/>
    <path d="M355 399.693C357.348 399.693 359.253 397.79 359.253 395.444C359.253 393.098 357.348 391.195 355 391.195C352.651 391.195 350.747 393.098 350.747 395.444C350.747 397.79 352.651 399.693 355 399.693Z" fill="#2BBE54"/>
    <path d="M374.229 399.693C376.577 399.693 378.482 397.79 378.482 395.444C378.482 393.098 376.577 391.195 374.229 391.195C371.881 391.195 369.977 393.098 369.977 395.444C369.977 397.79 371.881 399.693 374.229 399.693Z" fill="#2BBE54"/>
    <path d="M393.458 399.693C395.807 399.693 397.711 397.79 397.711 395.444C397.711 393.098 395.807 391.195 393.458 391.195C391.11 391.195 389.206 393.098 389.206 395.444C389.206 397.79 391.11 399.693 393.458 399.693Z" fill="#2BBE54"/>
    <path d="M412.687 399.693C415.036 399.693 416.94 397.79 416.94 395.444C416.94 393.098 415.036 391.195 412.687 391.195C410.339 391.195 408.435 393.098 408.435 395.444C408.435 397.79 410.339 399.693 412.687 399.693Z" fill="#2BBE54"/>
    <path d="M431.917 399.693C434.265 399.693 436.169 397.79 436.169 395.444C436.169 393.098 434.265 391.195 431.917 391.195C429.568 391.195 427.664 393.098 427.664 395.444C427.664 397.79 429.568 399.693 431.917 399.693Z" fill="#4E506A"/>
    <path d="M451.146 399.693C453.494 399.693 455.399 397.79 455.399 395.444C455.399 393.098 453.494 391.195 451.146 391.195C448.798 391.195 446.893 393.098 446.893 395.444C446.893 397.79 448.798 399.693 451.146 399.693Z" fill="#4E506A"/>
    <path d="M470.375 399.693C472.723 399.693 474.628 397.79 474.628 395.444C474.628 393.098 472.723 391.195 470.375 391.195C468.027 391.195 466.122 393.098 466.122 395.444C466.122 397.79 468.027 399.693 470.375 399.693Z" fill="#2BBE54"/>
    <path d="M489.604 399.693C491.952 399.693 493.857 397.79 493.857 395.444C493.857 393.098 491.952 391.195 489.604 391.195C487.256 391.195 485.352 393.098 485.352 395.444C485.352 397.79 487.256 399.693 489.604 399.693Z" fill="#2BBE54"/>
    <path d="M39.6787 150.687C42.0273 150.687 43.9313 148.785 43.9313 146.438C43.9313 144.092 42.0273 142.19 39.6787 142.19C37.3302 142.19 35.426 144.092 35.426 146.438C35.426 148.785 37.3302 150.687 39.6787 150.687Z" fill="#2BBE54"/>
    <path d="M39.6787 169.159C42.0273 169.159 43.9313 167.257 43.9313 164.91C43.9313 162.564 42.0273 160.662 39.6787 160.662C37.3302 160.662 35.426 162.564 35.426 164.91C35.426 167.257 37.3302 169.159 39.6787 169.159Z" fill="#2BBE54"/>
    <path d="M39.6787 187.631C42.0273 187.631 43.9313 185.729 43.9313 183.383C43.9313 181.037 42.0273 179.134 39.6787 179.134C37.3302 179.134 35.426 181.037 35.426 183.383C35.426 185.729 37.3302 187.631 39.6787 187.631Z" fill="#4E506A"/>
    <path d="M39.6787 206.104C42.0273 206.104 43.9313 204.201 43.9313 201.855C43.9313 199.509 42.0273 197.606 39.6787 197.606C37.3302 197.606 35.426 199.509 35.426 201.855C35.426 204.201 37.3302 206.104 39.6787 206.104Z" fill="#4E506A"/>
    <path d="M39.6787 224.576C42.0273 224.576 43.9313 222.674 43.9313 220.327C43.9313 217.981 42.0273 216.079 39.6787 216.079C37.3302 216.079 35.426 217.981 35.426 220.327C35.426 222.674 37.3302 224.576 39.6787 224.576Z" fill="#4E506A"/>
    <path d="M39.6787 243.048C42.0273 243.048 43.9313 241.146 43.9313 238.799C43.9313 236.453 42.0273 234.551 39.6787 234.551C37.3302 234.551 35.426 236.453 35.426 238.799C35.426 241.146 37.3302 243.048 39.6787 243.048Z" fill="#2BBE54"/>
    <path d="M39.6787 261.52C42.0273 261.52 43.9313 259.618 43.9313 257.272C43.9313 254.925 42.0273 253.023 39.6787 253.023C37.3302 253.023 35.426 254.925 35.426 257.272C35.426 259.618 37.3302 261.52 39.6787 261.52Z" fill="#2BBE54"/>
    <path d="M39.6787 279.993C42.0273 279.993 43.9313 278.09 43.9313 275.744C43.9313 273.398 42.0273 271.495 39.6787 271.495C37.3302 271.495 35.426 273.398 35.426 275.744C35.426 278.09 37.3302 279.993 39.6787 279.993Z" fill="#2BBE54"/>
    <path d="M39.6787 298.465C42.0273 298.465 43.9313 296.562 43.9313 294.216C43.9313 291.87 42.0273 289.968 39.6787 289.968C37.3302 289.968 35.426 291.87 35.426 294.216C35.426 296.562 37.3302 298.465 39.6787 298.465Z" fill="#2BBE54"/>
</svg>
