<svg width="710" height="399" viewBox="0 0 710 399" fill="none" xmlns="http://www.w3.org/2000/svg">
<rect width="710" height="399" rx="20" fill="#222445"/>
<path d="M331.938 39.6757C327.986 39.6757 325.071 36.5683 325.071 32.64V32.6009C325.071 28.7313 327.986 25.5261 331.996 25.5261C334.481 25.5261 335.987 26.386 337.337 27.6955L336.28 28.829C335.107 27.7346 333.855 26.9528 331.977 26.9528C328.944 26.9528 326.675 29.4153 326.675 32.5618V32.6009C326.675 35.767 328.944 38.2489 331.977 38.2489C333.855 38.2489 335.087 37.5259 336.398 36.2751L337.415 37.2717C336.006 38.7181 334.402 39.6757 331.938 39.6757ZM348.784 42.1188V39.4411H339.942V29.3371H341.448V38.073H347.454V29.3371H348.96V38.073H350.154V42.1188H348.784ZM356.914 39.6757C354.156 39.6757 351.867 37.5455 351.867 34.4185V34.3794C351.867 31.4674 353.901 29.1221 356.718 29.1221C359.712 29.1221 361.433 31.5065 361.433 34.4576C361.433 34.6725 361.433 34.7703 361.413 34.9461H353.393C353.608 37.135 355.153 38.3664 356.953 38.3664C358.362 38.3664 359.301 37.7997 360.142 36.9396L361.081 37.7801C360.064 38.9331 358.851 39.6757 356.914 39.6757ZM353.393 33.8322H359.907C359.75 32.0146 358.714 30.3925 356.679 30.3925C354.899 30.3925 353.608 31.8778 353.393 33.8322ZM364.07 39.4411V29.3371H365.576V33.6563H371.622V29.3371H373.109V39.4411H371.622V35.0243H365.576V39.4411H364.07ZM379.499 39.6561C377.62 39.6561 375.723 38.601 375.723 36.5096V36.4705C375.723 34.3598 377.483 33.2068 380.046 33.2068C381.359 33.2068 382.239 33.3827 383.156 33.6367V33.2849C383.156 31.4674 382.043 30.5293 380.146 30.5293C378.951 30.5293 378.012 30.8224 377.073 31.2719L376.625 30.0407C377.738 29.513 378.815 29.2003 380.301 29.2003C381.729 29.2003 382.827 29.5717 383.57 30.3143C384.254 30.9983 384.606 31.9951 384.606 33.2654V39.4411H383.156V37.9168C382.453 38.8352 381.3 39.6561 379.499 39.6561ZM379.795 38.4639C381.669 38.4639 383.178 37.3305 383.178 35.7279V34.7507C382.413 34.5357 381.455 34.3207 380.205 34.3207C378.308 34.3207 377.25 35.1416 377.25 36.4119V36.451C377.25 37.7213 378.445 38.4639 379.795 38.4639Z" fill="white"/>
<path d="M355 52.4612C314.582 52.4612 275.643 49.4318 245.357 43.8901C245.246 43.8532 245.172 43.7793 245.209 43.7054C245.246 43.6315 245.357 43.5576 245.505 43.5945C275.791 49.0993 314.693 52.1657 355.037 52.1657C395.418 52.1657 434.32 49.1362 464.569 43.5945C464.68 43.5576 464.828 43.6315 464.865 43.7054C464.902 43.7793 464.828 43.8532 464.717 43.8901C434.357 49.4318 395.418 52.4612 355 52.4612Z" fill="white"/>
<path d="M318.525 90.3646V82.6062H324.005V83.4042H319.39V85.9091H321.831C323.506 85.9091 324.66 86.6073 324.66 88.0592V88.0814C324.66 89.6331 323.34 90.3646 321.709 90.3646H318.525ZM319.39 89.5666H321.742C322.918 89.5666 323.783 89.0567 323.783 88.1147V88.0925C323.783 87.1172 322.94 86.6849 321.786 86.6849H319.39V89.5666ZM328.788 90.4976C327.069 90.4976 325.815 89.1454 325.815 87.5272V87.5051C325.815 85.8758 327.069 84.5126 328.811 84.5126C330.541 84.5126 331.795 85.8647 331.795 87.4829V87.5051C331.795 89.1343 330.519 90.4976 328.788 90.4976ZM328.811 89.7328C330.053 89.7328 330.918 88.7242 330.918 87.5272V87.5051C330.918 86.2748 329.998 85.2662 328.788 85.2662C327.546 85.2662 326.692 86.2748 326.692 87.4829V87.5051C326.692 88.7353 327.601 89.7328 328.811 89.7328ZM335.867 84.5902L338.474 90.3646H337.52L335.468 85.6431L333.405 90.3646H332.484L335.08 84.5902H335.867ZM339.821 90.3646V84.6345H340.675V86.6073H342.428C343.837 86.6073 344.68 87.3167 344.68 88.4693V88.4915C344.68 89.6109 343.859 90.3646 342.395 90.3646H339.821ZM340.675 89.6331H342.384C343.36 89.6331 343.815 89.2008 343.815 88.4804V88.4693C343.815 87.7932 343.36 87.3167 342.395 87.3277H340.675V89.6331ZM346.083 90.3646V84.6345H346.937V89.5887H349.832V84.6345H350.675V89.5887H353.571V84.6345H354.425V90.3646H346.083ZM358.949 90.4976C357.23 90.4976 355.976 89.1454 355.976 87.5272V87.5051C355.976 85.8758 357.23 84.5126 358.972 84.5126C360.702 84.5126 361.956 85.8647 361.956 87.4829V87.5051C361.956 89.1343 360.68 90.4976 358.949 90.4976ZM358.972 89.7328C360.214 89.7328 361.079 88.7242 361.079 87.5272V87.5051C361.079 86.2748 360.159 85.2662 358.949 85.2662C357.707 85.2662 356.853 86.2748 356.853 87.4829V87.5051C356.853 88.7353 357.762 89.7328 358.972 89.7328ZM363.503 90.3646V84.6345H364.358V89.0789L367.841 84.6345H368.662V90.3646H367.819V85.9091L364.302 90.3646H363.503ZM366.077 83.7922C365.145 83.7922 364.513 83.2934 364.435 82.4067H365.057C365.19 82.8168 365.511 83.105 366.077 83.105C366.643 83.105 366.965 82.8168 367.098 82.4067H367.719C367.641 83.2934 367.009 83.7922 366.077 83.7922ZM373.393 89.7217L373.837 89.09C374.403 89.489 375.135 89.755 375.945 89.755C376.999 89.755 377.62 89.3671 377.62 88.7575V88.7464C377.62 88.1368 377.01 87.8154 376.023 87.8154H374.736V87.1282H376.012C376.943 87.1282 377.465 86.7514 377.465 86.1751V86.164C377.465 85.5987 376.932 85.233 375.989 85.233C375.279 85.233 374.592 85.4657 373.915 85.9423L373.471 85.3438C374.181 84.8229 374.991 84.5126 376.012 84.5126C377.476 84.5126 378.33 85.1665 378.33 86.0975V86.1086C378.33 86.8733 377.776 87.2612 377.176 87.4386C377.886 87.5827 378.486 88.0371 378.486 88.8018V88.8129C378.486 89.7328 377.587 90.4976 375.945 90.4976C374.913 90.4976 374.048 90.1983 373.393 89.7217ZM381.766 90.4865C380.701 90.4865 379.624 89.888 379.624 88.7021V88.6799C379.624 87.4829 380.623 86.829 382.076 86.829C382.819 86.829 383.319 86.9287 383.84 87.0728V86.8733C383.84 85.8426 383.208 85.3106 382.132 85.3106C381.455 85.3106 380.922 85.4768 380.39 85.7317L380.135 85.0335C380.767 84.7342 381.377 84.5569 382.22 84.5569C383.03 84.5569 383.652 84.7675 384.073 85.1887C384.461 85.5766 384.661 86.1418 384.661 86.8622V90.3646H383.84V89.5001C383.441 90.021 382.786 90.4865 381.766 90.4865ZM381.932 89.8104C382.997 89.8104 383.851 89.1676 383.851 88.2587V87.7046C383.419 87.5827 382.875 87.4607 382.165 87.4607C381.089 87.4607 380.49 87.9262 380.49 88.6467V88.6688C380.49 89.3892 381.166 89.8104 381.932 89.8104ZM389.298 84.5902L391.905 90.3646H390.951L388.899 85.6431L386.835 90.3646H385.915L388.511 84.5902H389.298Z" fill="white"/>
<path d="M513.526 113.323V107.258H514.214V108.19C514.602 107.643 515.131 107.16 515.989 107.16C517.102 107.16 518.204 108.037 518.204 109.56V109.578C518.204 111.083 517.113 111.988 515.989 111.988C515.131 111.988 514.572 111.531 514.214 111.003V113.323H513.526ZM515.867 111.37C516.762 111.37 517.497 110.707 517.497 109.587V109.57C517.497 108.467 516.754 107.778 515.867 107.778C515.005 107.778 514.188 108.512 514.188 109.56V109.578C514.188 110.653 515.005 111.37 515.867 111.37ZM519.938 111.89H519.113L520.467 110.107C519.724 109.937 519.284 109.444 519.284 108.727V108.718C519.284 107.831 519.99 107.258 521.096 107.258H523.336V111.89H522.656V110.169H521.221L519.938 111.89ZM522.656 107.831H521.103C520.411 107.831 519.975 108.19 519.975 108.718V108.727C519.975 109.265 520.386 109.623 521.103 109.614H522.656V107.831ZM527.412 107.222L529.22 111.262H529.749V113.117H529.124V111.89H524.982V113.117H524.353V111.262H524.882L526.694 107.222H527.412ZM527.053 107.912L525.589 111.28H528.488L527.053 107.912ZM534.279 111.89V106.308L533.095 106.676L532.925 106.103L534.46 105.574H534.977V111.89H534.279Z" fill="white"/>
<path d="M513.526 133.651V127.586H514.214V128.518C514.602 127.972 515.131 127.488 515.989 127.488C517.102 127.488 518.204 128.366 518.204 129.889V129.906C518.204 131.411 517.113 132.316 515.989 132.316C515.131 132.316 514.572 131.859 514.214 131.331V133.651H513.526ZM515.867 131.698C516.762 131.698 517.497 131.035 517.497 129.916V129.897C517.497 128.796 516.754 128.106 515.867 128.106C515.005 128.106 514.188 128.84 514.188 129.889V129.906C514.188 130.981 515.005 131.698 515.867 131.698ZM519.938 132.218H519.113L520.467 130.435C519.724 130.265 519.284 129.772 519.284 129.055V129.047C519.284 128.16 519.99 127.586 521.096 127.586H523.336V132.218H522.656V130.498H521.221L519.938 132.218ZM522.656 128.16H521.103C520.411 128.16 519.975 128.518 519.975 129.047V129.055C519.975 129.593 520.386 129.951 521.103 129.942H522.656V128.16ZM527.412 127.55L529.22 131.591H529.749V133.445H529.124V132.218H524.982V133.445H524.353V131.591H524.882L526.694 127.55H527.412ZM527.053 128.24L525.589 131.608H528.488L527.053 128.24ZM533.106 132.218V131.671L535.381 129.665C536.342 128.805 536.693 128.321 536.693 127.694C536.693 126.959 536.109 126.493 535.429 126.493C534.711 126.493 534.245 126.861 533.742 127.568L533.221 127.192C533.805 126.35 534.367 125.857 535.48 125.857C536.612 125.857 537.426 126.61 537.426 127.631V127.649C537.426 128.563 536.941 129.127 535.839 130.085L534.164 131.572H537.488V132.218H533.106Z" fill="white"/>
<path d="M513.526 153.979V147.914H514.214V148.846C514.602 148.299 515.131 147.816 515.989 147.816C517.102 147.816 518.204 148.694 518.204 150.217V150.235C518.204 151.739 517.113 152.644 515.989 152.644C515.131 152.644 514.572 152.187 514.214 151.659V153.979H513.526ZM515.867 152.026C516.762 152.026 517.497 151.363 517.497 150.243V150.225C517.497 149.124 516.754 148.434 515.867 148.434C515.005 148.434 514.188 149.168 514.188 150.217V150.235C514.188 151.309 515.005 152.026 515.867 152.026ZM519.938 152.546H519.113L520.467 150.763C519.724 150.593 519.284 150.1 519.284 149.383V149.375C519.284 148.487 519.99 147.914 521.096 147.914H523.336V152.546H522.656V150.826H521.221L519.938 152.546ZM522.656 148.487H521.103C520.411 148.487 519.975 148.846 519.975 149.375V149.383C519.975 149.921 520.386 150.279 521.103 150.27H522.656V148.487ZM527.412 147.879L529.22 151.919H529.749V153.773H529.124V152.546H524.982V153.773H524.353V151.919H524.882L526.694 147.879H527.412ZM527.053 148.568L525.589 151.937H528.488L527.053 148.568ZM535.462 152.653C534.415 152.653 533.635 152.205 533.121 151.534L533.635 151.077C534.127 151.677 534.693 152.008 535.473 152.008C536.235 152.008 536.845 151.534 536.845 150.79V150.772C536.845 149.993 536.116 149.563 535.085 149.563H534.682L534.541 149.141L536.52 146.911H533.454V146.275H537.463V146.795L535.492 148.98C536.582 149.079 537.562 149.59 537.562 150.745V150.763C537.562 151.883 536.63 152.653 535.462 152.653Z" fill="white"/>
<path d="M513.526 174.307V168.242H514.214V169.174C514.602 168.628 515.131 168.144 515.989 168.144C517.102 168.144 518.204 169.022 518.204 170.545V170.563C518.204 172.068 517.113 172.972 515.989 172.972C515.131 172.972 514.572 172.515 514.214 171.987V174.307H513.526ZM515.867 172.354C516.762 172.354 517.497 171.691 517.497 170.571V170.554C517.497 169.452 516.754 168.762 515.867 168.762C515.005 168.762 514.188 169.497 514.188 170.545V170.563C514.188 171.638 515.005 172.354 515.867 172.354ZM519.938 172.874H519.113L520.467 171.091C519.724 170.921 519.284 170.428 519.284 169.712V169.702C519.284 168.816 519.99 168.242 521.096 168.242H523.336V172.874H522.656V171.154H521.221L519.938 172.874ZM522.656 168.816H521.103C520.411 168.816 519.975 169.174 519.975 169.702V169.712C519.975 170.249 520.386 170.607 521.103 170.598H522.656V168.816ZM527.412 168.207L529.22 172.247H529.749V174.101H529.124V172.874H524.982V174.101H524.353V172.247H524.882L526.694 168.207H527.412ZM527.053 168.896L525.589 172.265H528.488L527.053 168.896ZM536.549 172.874V171.387H533.239L533.058 170.876L536.612 166.558H537.23V170.796H538.206V171.387H537.23V172.874H536.549ZM533.912 170.796H536.549V167.562L533.912 170.796Z" fill="white"/>
<path d="M513.526 194.635V188.571H514.214V189.502C514.602 188.956 515.131 188.472 515.989 188.472C517.102 188.472 518.204 189.35 518.204 190.873V190.891C518.204 192.396 517.113 193.301 515.989 193.301C515.131 193.301 514.572 192.844 514.214 192.315V194.635H513.526ZM515.867 192.683C516.762 192.683 517.497 192.02 517.497 190.9V190.882C517.497 189.78 516.754 189.09 515.867 189.09C515.005 189.09 514.188 189.825 514.188 190.873V190.891C514.188 191.966 515.005 192.683 515.867 192.683ZM519.938 193.202H519.113L520.467 191.419C519.724 191.249 519.284 190.757 519.284 190.04V190.031C519.284 189.144 519.99 188.571 521.096 188.571H523.336V193.202H522.656V191.482H521.221L519.938 193.202ZM522.656 189.144H521.103C520.411 189.144 519.975 189.502 519.975 190.031V190.04C519.975 190.577 520.386 190.936 521.103 190.927H522.656V189.144ZM527.412 188.535L529.22 192.575H529.749V194.429H529.124V193.202H524.982V194.429H524.353V192.575H524.882L526.694 188.535H527.412ZM527.053 189.225L525.589 192.593H528.488L527.053 189.225ZM535.392 193.309C534.493 193.309 533.724 192.889 533.151 192.315L533.617 191.805C534.164 192.342 534.756 192.665 535.399 192.665C536.298 192.665 536.915 192.073 536.915 191.276V191.258C536.915 190.47 536.261 189.941 535.355 189.941C534.818 189.941 534.404 190.094 534.038 190.3L533.561 189.986L533.742 186.931H537.355V187.585H534.36L534.227 189.592C534.593 189.422 534.933 189.314 535.462 189.314C536.682 189.314 537.633 190.04 537.633 191.231V191.249C537.633 192.476 536.708 193.309 535.392 193.309Z" fill="white"/>
<path d="M513.526 214.964V208.899H514.214V209.831C514.602 209.284 515.131 208.8 515.989 208.8C517.102 208.8 518.204 209.678 518.204 211.201V211.219C518.204 212.724 517.113 213.629 515.989 213.629C515.131 213.629 514.572 213.172 514.214 212.643V214.964H513.526ZM515.867 213.011C516.762 213.011 517.497 212.348 517.497 211.228V211.21C517.497 210.108 516.754 209.419 515.867 209.419C515.005 209.419 514.188 210.153 514.188 211.201V211.219C514.188 212.294 515.005 213.011 515.867 213.011ZM519.938 213.53H519.113L520.467 211.748C519.724 211.578 519.284 211.085 519.284 210.368V210.359C519.284 209.472 519.99 208.899 521.096 208.899H523.336V213.53H522.656V211.81H521.221L519.938 213.53ZM522.656 209.472H521.103C520.411 209.472 519.975 209.831 519.975 210.359V210.368C519.975 210.906 520.386 211.264 521.103 211.255H522.656V209.472ZM527.412 208.863L529.22 212.903H529.749V214.758H529.124V213.53H524.982V214.758H524.353V212.903H524.882L526.694 208.863H527.412ZM527.053 209.553L525.589 212.921H528.488L527.053 209.553ZM535.662 213.638C534.97 213.638 534.404 213.396 534.012 213.002C533.509 212.5 533.221 211.855 533.221 210.574V210.556C533.221 208.648 534.182 207.152 535.832 207.152C536.582 207.152 537.141 207.412 537.688 207.869L537.274 208.415C536.808 208.021 536.368 207.797 535.795 207.797C534.574 207.797 533.95 209.069 533.95 210.485V210.574C534.367 209.965 534.915 209.607 535.739 209.607C536.915 209.607 537.91 210.35 537.91 211.533V211.551C537.91 212.76 536.926 213.638 535.662 213.638ZM535.669 213.011C536.593 213.011 537.185 212.375 537.185 211.578V211.559C537.185 210.798 536.557 210.216 535.651 210.216C534.711 210.216 534.083 210.897 534.083 211.586V211.605C534.083 212.402 534.737 213.011 535.669 213.011Z" fill="white"/>
<path d="M513.526 235.292V229.227H514.214V230.159C514.602 229.612 515.131 229.129 515.989 229.129C517.102 229.129 518.204 230.006 518.204 231.529V231.547C518.204 233.052 517.113 233.957 515.989 233.957C515.131 233.957 514.572 233.5 514.214 232.972V235.292H513.526ZM515.867 233.339C516.762 233.339 517.497 232.676 517.497 231.556V231.538C517.497 230.436 516.754 229.747 515.867 229.747C515.005 229.747 514.188 230.481 514.188 231.529V231.547C514.188 232.622 515.005 233.339 515.867 233.339ZM519.938 233.858H519.113L520.467 232.076C519.724 231.905 519.284 231.413 519.284 230.696V230.687C519.284 229.8 519.99 229.227 521.096 229.227H523.336V233.858H522.656V232.138H521.221L519.938 233.858ZM522.656 229.8H521.103C520.411 229.8 519.975 230.159 519.975 230.687V230.696C519.975 231.234 520.386 231.592 521.103 231.583H522.656V229.8ZM527.412 229.191L529.22 233.231H529.749V235.086H529.124V233.858H524.982V235.086H524.353V233.231H524.882L526.694 229.191H527.412ZM527.053 229.881L525.589 233.249H528.488L527.053 229.881ZM533.901 233.858L536.738 228.233H533.284V227.588H537.544V228.116L534.693 233.858H533.901Z" fill="white"/>
<path d="M513.526 255.62V249.555H514.214V250.487C514.602 249.94 515.131 249.457 515.989 249.457C517.102 249.457 518.204 250.334 518.204 251.857V251.875C518.204 253.38 517.113 254.285 515.989 254.285C515.131 254.285 514.572 253.828 514.214 253.299V255.62H513.526ZM515.867 253.667C516.762 253.667 517.497 253.004 517.497 251.884V251.866C517.497 250.764 516.754 250.075 515.867 250.075C515.005 250.075 514.188 250.809 514.188 251.857V251.875C514.188 252.95 515.005 253.667 515.867 253.667ZM519.938 254.187H519.113L520.467 252.404C519.724 252.234 519.284 251.741 519.284 251.024V251.015C519.284 250.129 519.99 249.555 521.096 249.555H523.336V254.187H522.656V252.466H521.221L519.938 254.187ZM522.656 250.129H521.103C520.411 250.129 519.975 250.487 519.975 251.015V251.024C519.975 251.562 520.386 251.92 521.103 251.911H522.656V250.129ZM527.412 249.519L529.22 253.559H529.749V255.414H529.124V254.187H524.982V255.414H524.353V253.559H524.882L526.694 249.519H527.412ZM527.053 250.209L525.589 253.577H528.488L527.053 250.209ZM535.499 254.276C534.164 254.276 533.14 253.55 533.14 252.502V252.484C533.14 251.732 533.68 251.221 534.43 250.944C533.85 250.675 533.358 250.227 533.358 249.501V249.484C533.358 248.516 534.353 247.826 535.499 247.826C536.645 247.826 537.644 248.516 537.644 249.484V249.501C537.644 250.227 537.148 250.675 536.568 250.944C537.311 251.221 537.858 251.732 537.858 252.475V252.493C537.858 253.559 536.834 254.276 535.499 254.276ZM535.499 250.693C536.298 250.693 536.934 250.227 536.934 249.546V249.528C536.934 248.91 536.324 248.444 535.499 248.444C534.674 248.444 534.064 248.901 534.064 249.528V249.546C534.064 250.227 534.7 250.693 535.499 250.693ZM535.499 253.658C536.531 253.658 537.141 253.12 537.141 252.484V252.466C537.141 251.777 536.405 251.275 535.499 251.275C534.586 251.275 533.857 251.777 533.857 252.466V252.484C533.857 253.12 534.467 253.658 535.499 253.658Z" fill="white"/>
<path d="M513.526 275.948V269.883H514.214V270.815C514.602 270.269 515.131 269.785 515.989 269.785C517.102 269.785 518.204 270.663 518.204 272.186V272.203C518.204 273.708 517.113 274.613 515.989 274.613C515.131 274.613 514.572 274.156 514.214 273.628V275.948H513.526ZM515.867 273.995C516.762 273.995 517.497 273.332 517.497 272.213V272.194C517.497 271.093 516.754 270.403 515.867 270.403C515.005 270.403 514.188 271.137 514.188 272.186V272.203C514.188 273.278 515.005 273.995 515.867 273.995ZM519.938 274.515H519.113L520.467 272.732C519.724 272.562 519.284 272.069 519.284 271.352V271.343C519.284 270.457 519.99 269.883 521.096 269.883H523.336V274.515H522.656V272.795H521.221L519.938 274.515ZM522.656 270.457H521.103C520.411 270.457 519.975 270.815 519.975 271.343V271.352C519.975 271.89 520.386 272.248 521.103 272.239H522.656V270.457ZM527.412 269.847L529.22 273.888H529.749V275.742H529.124V274.515H524.982V275.742H524.353V273.888H524.882L526.694 269.847H527.412ZM527.053 270.537L525.589 273.905H528.488L527.053 270.537ZM535.336 273.977C536.549 273.977 537.204 272.714 537.204 271.361V271.236C536.808 271.845 536.242 272.23 535.429 272.23C534.134 272.23 533.239 271.415 533.239 270.286V270.269C533.239 269.077 534.164 268.136 535.499 268.136C536.216 268.136 536.745 268.378 537.148 268.782C537.625 269.256 537.928 269.955 537.928 271.209V271.227C537.928 273.216 536.871 274.622 535.321 274.622C534.493 274.622 533.92 274.291 533.384 273.852L533.794 273.305C534.308 273.762 534.774 273.977 535.336 273.977ZM535.506 271.621C536.475 271.621 537.067 270.922 537.067 270.206V270.188C537.067 269.4 536.412 268.763 535.473 268.763C534.53 268.763 533.964 269.453 533.964 270.233V270.25C533.964 271.048 534.593 271.621 535.506 271.621Z" fill="white"/>
<path d="M190.258 113.9C192.647 113.9 194.584 111.964 194.584 109.577C194.584 107.19 192.647 105.255 190.258 105.255C187.868 105.255 185.931 107.19 185.931 109.577C185.931 111.964 187.868 113.9 190.258 113.9Z" fill="#FF9D00"/>
<path d="M206.122 113.9C208.512 113.9 210.449 111.964 210.449 109.577C210.449 107.19 208.512 105.255 206.122 105.255C203.732 105.255 201.795 107.19 201.795 109.577C201.795 111.964 203.732 113.9 206.122 113.9Z" fill="#FF9D00"/>
<path d="M221.986 113.9C224.375 113.9 226.312 111.964 226.312 109.577C226.312 107.19 224.375 105.255 221.986 105.255C219.596 105.255 217.659 107.19 217.659 109.577C217.659 111.964 219.596 113.9 221.986 113.9Z" fill="#FF9D00"/>
<path d="M237.85 113.9C240.24 113.9 242.177 111.964 242.177 109.577C242.177 107.19 240.24 105.255 237.85 105.255C235.46 105.255 233.523 107.19 233.523 109.577C233.523 111.964 235.46 113.9 237.85 113.9Z" fill="#FF9D00"/>
<path d="M253.714 113.9C256.104 113.9 258.041 111.964 258.041 109.577C258.041 107.19 256.104 105.255 253.714 105.255C251.325 105.255 249.388 107.19 249.388 109.577C249.388 111.964 251.325 113.9 253.714 113.9Z" fill="#FF9D00"/>
<path d="M269.578 113.9C271.968 113.9 273.905 111.964 273.905 109.577C273.905 107.19 271.968 105.255 269.578 105.255C267.188 105.255 265.251 107.19 265.251 109.577C265.251 111.964 267.188 113.9 269.578 113.9Z" fill="#FF9D00"/>
<path d="M285.405 113.9C287.795 113.9 289.732 111.964 289.732 109.577C289.732 107.19 287.795 105.255 285.405 105.255C283.016 105.255 281.079 107.19 281.079 109.577C281.079 111.964 283.016 113.9 285.405 113.9Z" fill="#FF9D00"/>
<path d="M301.269 113.9C303.659 113.9 305.596 111.964 305.596 109.577C305.596 107.19 303.659 105.255 301.269 105.255C298.88 105.255 296.943 107.19 296.943 109.577C296.943 111.964 298.88 113.9 301.269 113.9Z" fill="#FF9D00"/>
<path d="M317.133 113.9C319.523 113.9 321.46 111.964 321.46 109.577C321.46 107.19 319.523 105.255 317.133 105.255C314.744 105.255 312.807 107.19 312.807 109.577C312.807 111.964 314.744 113.9 317.133 113.9Z" fill="#FF9D00"/>
<path d="M332.997 113.9C335.387 113.9 337.324 111.964 337.324 109.577C337.324 107.19 335.387 105.255 332.997 105.255C330.608 105.255 328.671 107.19 328.671 109.577C328.671 111.964 330.608 113.9 332.997 113.9Z" fill="#FF9D00"/>
<path d="M190.258 134.293C192.647 134.293 194.584 132.358 194.584 129.97C194.584 127.583 192.647 125.648 190.258 125.648C187.868 125.648 185.931 127.583 185.931 129.97C185.931 132.358 187.868 134.293 190.258 134.293Z" fill="#FF9D00"/>
<path d="M206.122 134.293C208.512 134.293 210.449 132.358 210.449 129.97C210.449 127.583 208.512 125.648 206.122 125.648C203.732 125.648 201.795 127.583 201.795 129.97C201.795 132.358 203.732 134.293 206.122 134.293Z" fill="#FF9D00"/>
<path d="M221.986 134.293C224.375 134.293 226.312 132.358 226.312 129.97C226.312 127.583 224.375 125.648 221.986 125.648C219.596 125.648 217.659 127.583 217.659 129.97C217.659 132.358 219.596 134.293 221.986 134.293Z" fill="#FF9D00"/>
<path d="M237.85 134.293C240.24 134.293 242.177 132.358 242.177 129.97C242.177 127.583 240.24 125.648 237.85 125.648C235.46 125.648 233.523 127.583 233.523 129.97C233.523 132.358 235.46 134.293 237.85 134.293Z" fill="#FF9D00"/>
<path d="M253.714 134.293C256.104 134.293 258.041 132.358 258.041 129.97C258.041 127.583 256.104 125.648 253.714 125.648C251.325 125.648 249.388 127.583 249.388 129.97C249.388 132.358 251.325 134.293 253.714 134.293Z" fill="#FF9D00"/>
<path d="M269.578 134.293C271.968 134.293 273.905 132.358 273.905 129.97C273.905 127.583 271.968 125.648 269.578 125.648C267.188 125.648 265.251 127.583 265.251 129.97C265.251 132.358 267.188 134.293 269.578 134.293Z" fill="#FF9D00"/>
<path d="M285.405 134.293C287.795 134.293 289.732 132.358 289.732 129.97C289.732 127.583 287.795 125.648 285.405 125.648C283.016 125.648 281.079 127.583 281.079 129.97C281.079 132.358 283.016 134.293 285.405 134.293Z" fill="#FF9D00"/>
<path d="M301.269 134.293C303.659 134.293 305.596 132.358 305.596 129.97C305.596 127.583 303.659 125.648 301.269 125.648C298.88 125.648 296.943 127.583 296.943 129.97C296.943 132.358 298.88 134.293 301.269 134.293Z" fill="#FF9D00"/>
<path d="M317.133 134.293C319.523 134.293 321.46 132.358 321.46 129.97C321.46 127.583 319.523 125.648 317.133 125.648C314.744 125.648 312.807 127.583 312.807 129.97C312.807 132.358 314.744 134.293 317.133 134.293Z" fill="#FF9D00"/>
<path d="M332.997 134.293C335.387 134.293 337.324 132.358 337.324 129.97C337.324 127.583 335.387 125.648 332.997 125.648C330.608 125.648 328.671 127.583 328.671 129.97C328.671 132.358 330.608 134.293 332.997 134.293Z" fill="#FF9D00"/>
<path d="M190.258 154.649C192.647 154.649 194.584 152.714 194.584 150.327C194.584 147.94 192.647 146.004 190.258 146.004C187.868 146.004 185.931 147.94 185.931 150.327C185.931 152.714 187.868 154.649 190.258 154.649Z" fill="#FF9D00"/>
<path d="M206.122 154.649C208.512 154.649 210.449 152.714 210.449 150.327C210.449 147.94 208.512 146.004 206.122 146.004C203.732 146.004 201.795 147.94 201.795 150.327C201.795 152.714 203.732 154.649 206.122 154.649Z" fill="#FF9D00"/>
<path d="M221.986 154.649C224.375 154.649 226.312 152.714 226.312 150.327C226.312 147.94 224.375 146.004 221.986 146.004C219.596 146.004 217.659 147.94 217.659 150.327C217.659 152.714 219.596 154.649 221.986 154.649Z" fill="#FF9D00"/>
<path d="M237.85 154.649C240.24 154.649 242.177 152.714 242.177 150.327C242.177 147.94 240.24 146.004 237.85 146.004C235.46 146.004 233.523 147.94 233.523 150.327C233.523 152.714 235.46 154.649 237.85 154.649Z" fill="#FF9D00"/>
<path d="M253.714 154.649C256.104 154.649 258.041 152.714 258.041 150.327C258.041 147.94 256.104 146.004 253.714 146.004C251.325 146.004 249.388 147.94 249.388 150.327C249.388 152.714 251.325 154.649 253.714 154.649Z" fill="#FF9D00"/>
<path d="M269.578 154.649C271.968 154.649 273.905 152.714 273.905 150.327C273.905 147.94 271.968 146.004 269.578 146.004C267.188 146.004 265.251 147.94 265.251 150.327C265.251 152.714 267.188 154.649 269.578 154.649Z" fill="#FF9D00"/>
<path d="M285.405 154.649C287.795 154.649 289.732 152.714 289.732 150.327C289.732 147.94 287.795 146.004 285.405 146.004C283.016 146.004 281.079 147.94 281.079 150.327C281.079 152.714 283.016 154.649 285.405 154.649Z" fill="#FF9D00"/>
<path d="M301.269 154.649C303.659 154.649 305.596 152.714 305.596 150.327C305.596 147.94 303.659 146.004 301.269 146.004C298.88 146.004 296.943 147.94 296.943 150.327C296.943 152.714 298.88 154.649 301.269 154.649Z" fill="#FF9D00"/>
<path d="M317.133 154.649C319.523 154.649 321.46 152.714 321.46 150.327C321.46 147.94 319.523 146.004 317.133 146.004C314.744 146.004 312.807 147.94 312.807 150.327C312.807 152.714 314.744 154.649 317.133 154.649Z" fill="#FF9D00"/>
<path d="M332.997 154.649C335.387 154.649 337.324 152.714 337.324 150.327C337.324 147.94 335.387 146.004 332.997 146.004C330.608 146.004 328.671 147.94 328.671 150.327C328.671 152.714 330.608 154.649 332.997 154.649Z" fill="#FF9D00"/>
<path d="M190.258 175.006C192.647 175.006 194.584 173.071 194.584 170.683C194.584 168.296 192.647 166.361 190.258 166.361C187.868 166.361 185.931 168.296 185.931 170.683C185.931 173.071 187.868 175.006 190.258 175.006Z" fill="#FFD101"/>
<path d="M206.122 175.006C208.512 175.006 210.449 173.071 210.449 170.683C210.449 168.296 208.512 166.361 206.122 166.361C203.732 166.361 201.795 168.296 201.795 170.683C201.795 173.071 203.732 175.006 206.122 175.006Z" fill="#FFD101"/>
<path d="M221.986 175.006C224.375 175.006 226.312 173.071 226.312 170.683C226.312 168.296 224.375 166.361 221.986 166.361C219.596 166.361 217.659 168.296 217.659 170.683C217.659 173.071 219.596 175.006 221.986 175.006Z" fill="#FFD101"/>
<path d="M237.85 175.006C240.24 175.006 242.177 173.071 242.177 170.683C242.177 168.296 240.24 166.361 237.85 166.361C235.46 166.361 233.523 168.296 233.523 170.683C233.523 173.071 235.46 175.006 237.85 175.006Z" fill="#FFD101"/>
<path d="M253.714 175.006C256.104 175.006 258.041 173.071 258.041 170.683C258.041 168.296 256.104 166.361 253.714 166.361C251.325 166.361 249.388 168.296 249.388 170.683C249.388 173.071 251.325 175.006 253.714 175.006Z" fill="#FFD101"/>
<path d="M269.578 175.006C271.968 175.006 273.905 173.071 273.905 170.683C273.905 168.296 271.968 166.361 269.578 166.361C267.188 166.361 265.251 168.296 265.251 170.683C265.251 173.071 267.188 175.006 269.578 175.006Z" fill="#FFD101"/>
<path d="M285.405 175.006C287.795 175.006 289.732 173.071 289.732 170.683C289.732 168.296 287.795 166.361 285.405 166.361C283.016 166.361 281.079 168.296 281.079 170.683C281.079 173.071 283.016 175.006 285.405 175.006Z" fill="#FFD101"/>
<path d="M301.269 175.006C303.659 175.006 305.596 173.071 305.596 170.683C305.596 168.296 303.659 166.361 301.269 166.361C298.88 166.361 296.943 168.296 296.943 170.683C296.943 173.071 298.88 175.006 301.269 175.006Z" fill="#FFD101"/>
<path d="M317.133 175.006C319.523 175.006 321.46 173.071 321.46 170.683C321.46 168.296 319.523 166.361 317.133 166.361C314.744 166.361 312.807 168.296 312.807 170.683C312.807 173.071 314.744 175.006 317.133 175.006Z" fill="#FFD101"/>
<path d="M332.997 175.006C335.387 175.006 337.324 173.071 337.324 170.683C337.324 168.296 335.387 166.361 332.997 166.361C330.608 166.361 328.671 168.296 328.671 170.683C328.671 173.071 330.608 175.006 332.997 175.006Z" fill="#FFD101"/>
<path d="M190.258 195.399C192.647 195.399 194.584 193.464 194.584 191.077C194.584 188.689 192.647 186.754 190.258 186.754C187.868 186.754 185.931 188.689 185.931 191.077C185.931 193.464 187.868 195.399 190.258 195.399Z" fill="#FFD101"/>
<path d="M206.122 195.399C208.512 195.399 210.449 193.464 210.449 191.077C210.449 188.689 208.512 186.754 206.122 186.754C203.732 186.754 201.795 188.689 201.795 191.077C201.795 193.464 203.732 195.399 206.122 195.399Z" fill="#FFD101"/>
<path d="M221.986 195.399C224.375 195.399 226.312 193.464 226.312 191.077C226.312 188.689 224.375 186.754 221.986 186.754C219.596 186.754 217.659 188.689 217.659 191.077C217.659 193.464 219.596 195.399 221.986 195.399Z" fill="#FFD101"/>
<path d="M237.85 195.399C240.24 195.399 242.177 193.464 242.177 191.077C242.177 188.689 240.24 186.754 237.85 186.754C235.46 186.754 233.523 188.689 233.523 191.077C233.523 193.464 235.46 195.399 237.85 195.399Z" fill="#FFD101"/>
<path d="M253.714 195.399C256.104 195.399 258.041 193.464 258.041 191.077C258.041 188.689 256.104 186.754 253.714 186.754C251.325 186.754 249.388 188.689 249.388 191.077C249.388 193.464 251.325 195.399 253.714 195.399Z" fill="#FFD101"/>
<path d="M269.578 195.399C271.968 195.399 273.905 193.464 273.905 191.077C273.905 188.689 271.968 186.754 269.578 186.754C267.188 186.754 265.251 188.689 265.251 191.077C265.251 193.464 267.188 195.399 269.578 195.399Z" fill="#FFD101"/>
<path d="M285.405 195.399C287.795 195.399 289.732 193.464 289.732 191.077C289.732 188.689 287.795 186.754 285.405 186.754C283.016 186.754 281.079 188.689 281.079 191.077C281.079 193.464 283.016 195.399 285.405 195.399Z" fill="#FFD101"/>
<path d="M301.269 195.399C303.659 195.399 305.596 193.464 305.596 191.077C305.596 188.689 303.659 186.754 301.269 186.754C298.88 186.754 296.943 188.689 296.943 191.077C296.943 193.464 298.88 195.399 301.269 195.399Z" fill="#FFD101"/>
<path d="M317.133 195.399C319.523 195.399 321.46 193.464 321.46 191.077C321.46 188.689 319.523 186.754 317.133 186.754C314.744 186.754 312.807 188.689 312.807 191.077C312.807 193.464 314.744 195.399 317.133 195.399Z" fill="#FFD101"/>
<path d="M332.997 195.399C335.387 195.399 337.324 193.464 337.324 191.077C337.324 188.689 335.387 186.754 332.997 186.754C330.608 186.754 328.671 188.689 328.671 191.077C328.671 193.464 330.608 195.399 332.997 195.399Z" fill="#FFD101"/>
<path d="M190.258 215.756C192.647 215.756 194.584 213.82 194.584 211.433C194.584 209.046 192.647 207.111 190.258 207.111C187.868 207.111 185.931 209.046 185.931 211.433C185.931 213.82 187.868 215.756 190.258 215.756Z" fill="#FFD101"/>
<path d="M206.122 215.756C208.512 215.756 210.449 213.82 210.449 211.433C210.449 209.046 208.512 207.111 206.122 207.111C203.732 207.111 201.795 209.046 201.795 211.433C201.795 213.82 203.732 215.756 206.122 215.756Z" fill="#FFD101"/>
<path d="M221.986 215.756C224.375 215.756 226.312 213.82 226.312 211.433C226.312 209.046 224.375 207.111 221.986 207.111C219.596 207.111 217.659 209.046 217.659 211.433C217.659 213.82 219.596 215.756 221.986 215.756Z" fill="#FFD101"/>
<path d="M237.85 215.756C240.24 215.756 242.177 213.82 242.177 211.433C242.177 209.046 240.24 207.111 237.85 207.111C235.46 207.111 233.523 209.046 233.523 211.433C233.523 213.82 235.46 215.756 237.85 215.756Z" fill="#FFD101"/>
<path d="M253.714 215.756C256.104 215.756 258.041 213.82 258.041 211.433C258.041 209.046 256.104 207.111 253.714 207.111C251.325 207.111 249.388 209.046 249.388 211.433C249.388 213.82 251.325 215.756 253.714 215.756Z" fill="#FFD101"/>
<path d="M269.578 215.756C271.968 215.756 273.905 213.82 273.905 211.433C273.905 209.046 271.968 207.111 269.578 207.111C267.188 207.111 265.251 209.046 265.251 211.433C265.251 213.82 267.188 215.756 269.578 215.756Z" fill="#FFD101"/>
<path d="M285.405 215.756C287.795 215.756 289.732 213.82 289.732 211.433C289.732 209.046 287.795 207.111 285.405 207.111C283.016 207.111 281.079 209.046 281.079 211.433C281.079 213.82 283.016 215.756 285.405 215.756Z" fill="#FFD101"/>
<path d="M301.269 215.756C303.659 215.756 305.596 213.82 305.596 211.433C305.596 209.046 303.659 207.111 301.269 207.111C298.88 207.111 296.943 209.046 296.943 211.433C296.943 213.82 298.88 215.756 301.269 215.756Z" fill="#FFD101"/>
<path d="M317.133 215.756C319.523 215.756 321.46 213.82 321.46 211.433C321.46 209.046 319.523 207.111 317.133 207.111C314.744 207.111 312.807 209.046 312.807 211.433C312.807 213.82 314.744 215.756 317.133 215.756Z" fill="#FFD101"/>
<path d="M332.997 215.756C335.387 215.756 337.324 213.82 337.324 211.433C337.324 209.046 335.387 207.111 332.997 207.111C330.608 207.111 328.671 209.046 328.671 211.433C328.671 213.82 330.608 215.756 332.997 215.756Z" fill="#FFD101"/>
<path d="M190.258 236.112C192.647 236.112 194.584 234.177 194.584 231.79C194.584 229.402 192.647 227.467 190.258 227.467C187.868 227.467 185.931 229.402 185.931 231.79C185.931 234.177 187.868 236.112 190.258 236.112Z" fill="#2BBE54"/>
<path d="M206.122 236.112C208.512 236.112 210.449 234.177 210.449 231.79C210.449 229.402 208.512 227.467 206.122 227.467C203.732 227.467 201.795 229.402 201.795 231.79C201.795 234.177 203.732 236.112 206.122 236.112Z" fill="#2BBE54"/>
<path d="M221.986 236.112C224.375 236.112 226.312 234.177 226.312 231.79C226.312 229.402 224.375 227.467 221.986 227.467C219.596 227.467 217.659 229.402 217.659 231.79C217.659 234.177 219.596 236.112 221.986 236.112Z" fill="#2BBE54"/>
<path d="M237.85 236.112C240.24 236.112 242.177 234.177 242.177 231.79C242.177 229.402 240.24 227.467 237.85 227.467C235.46 227.467 233.523 229.402 233.523 231.79C233.523 234.177 235.46 236.112 237.85 236.112Z" fill="#2BBE54"/>
<path d="M253.714 236.112C256.104 236.112 258.041 234.177 258.041 231.79C258.041 229.402 256.104 227.467 253.714 227.467C251.325 227.467 249.388 229.402 249.388 231.79C249.388 234.177 251.325 236.112 253.714 236.112Z" fill="#2BBE54"/>
<path d="M269.578 236.112C271.968 236.112 273.905 234.177 273.905 231.79C273.905 229.402 271.968 227.467 269.578 227.467C267.188 227.467 265.251 229.402 265.251 231.79C265.251 234.177 267.188 236.112 269.578 236.112Z" fill="#2BBE54"/>
<path d="M285.405 236.112C287.795 236.112 289.732 234.177 289.732 231.79C289.732 229.402 287.795 227.467 285.405 227.467C283.016 227.467 281.079 229.402 281.079 231.79C281.079 234.177 283.016 236.112 285.405 236.112Z" fill="#2BBE54"/>
<path d="M301.269 236.112C303.659 236.112 305.596 234.177 305.596 231.79C305.596 229.402 303.659 227.467 301.269 227.467C298.88 227.467 296.943 229.402 296.943 231.79C296.943 234.177 298.88 236.112 301.269 236.112Z" fill="#2BBE54"/>
<path d="M317.133 236.112C319.523 236.112 321.46 234.177 321.46 231.79C321.46 229.402 319.523 227.467 317.133 227.467C314.744 227.467 312.807 229.402 312.807 231.79C312.807 234.177 314.744 236.112 317.133 236.112Z" fill="#2BBE54"/>
<path d="M332.997 236.112C335.387 236.112 337.324 234.177 337.324 231.79C337.324 229.402 335.387 227.467 332.997 227.467C330.608 227.467 328.671 229.402 328.671 231.79C328.671 234.177 330.608 236.112 332.997 236.112Z" fill="#2BBE54"/>
<path d="M190.258 256.505C192.647 256.505 194.584 254.57 194.584 252.183C194.584 249.795 192.647 247.86 190.258 247.86C187.868 247.86 185.931 249.795 185.931 252.183C185.931 254.57 187.868 256.505 190.258 256.505Z" fill="#2BBE54"/>
<path d="M206.122 256.505C208.512 256.505 210.449 254.57 210.449 252.183C210.449 249.795 208.512 247.86 206.122 247.86C203.732 247.86 201.795 249.795 201.795 252.183C201.795 254.57 203.732 256.505 206.122 256.505Z" fill="#2BBE54"/>
<path d="M221.986 256.505C224.375 256.505 226.312 254.57 226.312 252.183C226.312 249.795 224.375 247.86 221.986 247.86C219.596 247.86 217.659 249.795 217.659 252.183C217.659 254.57 219.596 256.505 221.986 256.505Z" fill="#2BBE54"/>
<path d="M237.85 256.505C240.24 256.505 242.177 254.57 242.177 252.183C242.177 249.795 240.24 247.86 237.85 247.86C235.46 247.86 233.523 249.795 233.523 252.183C233.523 254.57 235.46 256.505 237.85 256.505Z" fill="#2BBE54"/>
<path d="M253.714 256.505C256.104 256.505 258.041 254.57 258.041 252.183C258.041 249.795 256.104 247.86 253.714 247.86C251.325 247.86 249.388 249.795 249.388 252.183C249.388 254.57 251.325 256.505 253.714 256.505Z" fill="#2BBE54"/>
<path d="M269.578 256.505C271.968 256.505 273.905 254.57 273.905 252.183C273.905 249.795 271.968 247.86 269.578 247.86C267.188 247.86 265.251 249.795 265.251 252.183C265.251 254.57 267.188 256.505 269.578 256.505Z" fill="#2BBE54"/>
<path d="M285.405 256.505C287.795 256.505 289.732 254.57 289.732 252.183C289.732 249.795 287.795 247.86 285.405 247.86C283.016 247.86 281.079 249.795 281.079 252.183C281.079 254.57 283.016 256.505 285.405 256.505Z" fill="#2BBE54"/>
<path d="M301.269 256.505C303.659 256.505 305.596 254.57 305.596 252.183C305.596 249.795 303.659 247.86 301.269 247.86C298.88 247.86 296.943 249.795 296.943 252.183C296.943 254.57 298.88 256.505 301.269 256.505Z" fill="#2BBE54"/>
<path d="M317.133 256.505C319.523 256.505 321.46 254.57 321.46 252.183C321.46 249.795 319.523 247.86 317.133 247.86C314.744 247.86 312.807 249.795 312.807 252.183C312.807 254.57 314.744 256.505 317.133 256.505Z" fill="#2BBE54"/>
<path d="M332.997 256.505C335.387 256.505 337.324 254.57 337.324 252.183C337.324 249.795 335.387 247.86 332.997 247.86C330.608 247.86 328.671 249.795 328.671 252.183C328.671 254.57 330.608 256.505 332.997 256.505Z" fill="#2BBE54"/>
<path d="M378.666 113.9C381.055 113.9 382.993 111.964 382.993 109.577C382.993 107.19 381.055 105.255 378.666 105.255C376.278 105.255 374.34 107.19 374.34 109.577C374.34 111.964 376.278 113.9 378.666 113.9Z" fill="#FF9D00"/>
<path d="M394.531 113.9C396.92 113.9 398.857 111.964 398.857 109.577C398.857 107.19 396.92 105.255 394.531 105.255C392.142 105.255 390.204 107.19 390.204 109.577C390.204 111.964 392.142 113.9 394.531 113.9Z" fill="#FF9D00"/>
<path d="M410.395 113.9C412.784 113.9 414.721 111.964 414.721 109.577C414.721 107.19 412.784 105.255 410.395 105.255C408.006 105.255 406.068 107.19 406.068 109.577C406.068 111.964 408.006 113.9 410.395 113.9Z" fill="#FF9D00"/>
<path d="M426.259 113.9C428.648 113.9 430.585 111.964 430.585 109.577C430.585 107.19 428.648 105.255 426.259 105.255C423.87 105.255 421.932 107.19 421.932 109.577C421.932 111.964 423.87 113.9 426.259 113.9Z" fill="#FF9D00"/>
<path d="M442.086 113.9C444.475 113.9 446.412 111.964 446.412 109.577C446.412 107.19 444.475 105.255 442.086 105.255C439.697 105.255 437.759 107.19 437.759 109.577C437.759 111.964 439.697 113.9 442.086 113.9Z" fill="#FF9D00"/>
<path d="M457.95 113.9C460.339 113.9 462.277 111.964 462.277 109.577C462.277 107.19 460.339 105.255 457.95 105.255C455.561 105.255 453.624 107.19 453.624 109.577C453.624 111.964 455.561 113.9 457.95 113.9Z" fill="#FF9D00"/>
<path d="M473.814 113.9C476.203 113.9 478.14 111.964 478.14 109.577C478.14 107.19 476.203 105.255 473.814 105.255C471.425 105.255 469.487 107.19 469.487 109.577C469.487 111.964 471.425 113.9 473.814 113.9Z" fill="#FF9D00"/>
<path d="M489.678 113.9C492.067 113.9 494.005 111.964 494.005 109.577C494.005 107.19 492.067 105.255 489.678 105.255C487.289 105.255 485.352 107.19 485.352 109.577C485.352 111.964 487.289 113.9 489.678 113.9Z" fill="#FF9D00"/>
<path d="M378.666 134.293C381.055 134.293 382.993 132.358 382.993 129.97C382.993 127.583 381.055 125.648 378.666 125.648C376.278 125.648 374.34 127.583 374.34 129.97C374.34 132.358 376.278 134.293 378.666 134.293Z" fill="#FF9D00"/>
<path d="M394.531 134.293C396.92 134.293 398.857 132.358 398.857 129.97C398.857 127.583 396.92 125.648 394.531 125.648C392.142 125.648 390.204 127.583 390.204 129.97C390.204 132.358 392.142 134.293 394.531 134.293Z" fill="#FF9D00"/>
<path d="M410.395 134.293C412.784 134.293 414.721 132.358 414.721 129.97C414.721 127.583 412.784 125.648 410.395 125.648C408.006 125.648 406.068 127.583 406.068 129.97C406.068 132.358 408.006 134.293 410.395 134.293Z" fill="#FF9D00"/>
<path d="M426.259 134.293C428.648 134.293 430.585 132.358 430.585 129.97C430.585 127.583 428.648 125.648 426.259 125.648C423.87 125.648 421.932 127.583 421.932 129.97C421.932 132.358 423.87 134.293 426.259 134.293Z" fill="#FF9D00"/>
<path d="M442.086 134.293C444.475 134.293 446.412 132.358 446.412 129.97C446.412 127.583 444.475 125.648 442.086 125.648C439.697 125.648 437.759 127.583 437.759 129.97C437.759 132.358 439.697 134.293 442.086 134.293Z" fill="#FF9D00"/>
<path d="M457.95 134.293C460.339 134.293 462.277 132.358 462.277 129.97C462.277 127.583 460.339 125.648 457.95 125.648C455.561 125.648 453.624 127.583 453.624 129.97C453.624 132.358 455.561 134.293 457.95 134.293Z" fill="#FF9D00"/>
<path d="M473.814 134.293C476.203 134.293 478.14 132.358 478.14 129.97C478.14 127.583 476.203 125.648 473.814 125.648C471.425 125.648 469.487 127.583 469.487 129.97C469.487 132.358 471.425 134.293 473.814 134.293Z" fill="#FF9D00"/>
<path d="M489.678 134.293C492.067 134.293 494.005 132.358 494.005 129.97C494.005 127.583 492.067 125.648 489.678 125.648C487.289 125.648 485.352 127.583 485.352 129.97C485.352 132.358 487.289 134.293 489.678 134.293Z" fill="#FF9D00"/>
<path d="M378.666 154.649C381.055 154.649 382.993 152.714 382.993 150.327C382.993 147.94 381.055 146.004 378.666 146.004C376.278 146.004 374.34 147.94 374.34 150.327C374.34 152.714 376.278 154.649 378.666 154.649Z" fill="#FF9D00"/>
<path d="M394.531 154.649C396.92 154.649 398.857 152.714 398.857 150.327C398.857 147.94 396.92 146.004 394.531 146.004C392.142 146.004 390.204 147.94 390.204 150.327C390.204 152.714 392.142 154.649 394.531 154.649Z" fill="#FF9D00"/>
<path d="M410.395 154.649C412.784 154.649 414.721 152.714 414.721 150.327C414.721 147.94 412.784 146.004 410.395 146.004C408.006 146.004 406.068 147.94 406.068 150.327C406.068 152.714 408.006 154.649 410.395 154.649Z" fill="#FF9D00"/>
<path d="M426.259 154.649C428.648 154.649 430.585 152.714 430.585 150.327C430.585 147.94 428.648 146.004 426.259 146.004C423.87 146.004 421.932 147.94 421.932 150.327C421.932 152.714 423.87 154.649 426.259 154.649Z" fill="#FF9D00"/>
<path d="M442.086 154.649C444.475 154.649 446.412 152.714 446.412 150.327C446.412 147.94 444.475 146.004 442.086 146.004C439.697 146.004 437.759 147.94 437.759 150.327C437.759 152.714 439.697 154.649 442.086 154.649Z" fill="#FF9D00"/>
<path d="M457.95 154.649C460.339 154.649 462.277 152.714 462.277 150.327C462.277 147.94 460.339 146.004 457.95 146.004C455.561 146.004 453.624 147.94 453.624 150.327C453.624 152.714 455.561 154.649 457.95 154.649Z" fill="#FF9D00"/>
<path d="M473.814 154.649C476.203 154.649 478.14 152.714 478.14 150.327C478.14 147.94 476.203 146.004 473.814 146.004C471.425 146.004 469.487 147.94 469.487 150.327C469.487 152.714 471.425 154.649 473.814 154.649Z" fill="#FF9D00"/>
<path d="M489.678 154.649C492.067 154.649 494.005 152.714 494.005 150.327C494.005 147.94 492.067 146.004 489.678 146.004C487.289 146.004 485.352 147.94 485.352 150.327C485.352 152.714 487.289 154.649 489.678 154.649Z" fill="#FF9D00"/>
<path d="M378.666 175.006C381.055 175.006 382.993 173.071 382.993 170.683C382.993 168.296 381.055 166.361 378.666 166.361C376.278 166.361 374.34 168.296 374.34 170.683C374.34 173.071 376.278 175.006 378.666 175.006Z" fill="#FFD101"/>
<path d="M394.531 175.006C396.92 175.006 398.857 173.071 398.857 170.683C398.857 168.296 396.92 166.361 394.531 166.361C392.142 166.361 390.204 168.296 390.204 170.683C390.204 173.071 392.142 175.006 394.531 175.006Z" fill="#FFD101"/>
<path d="M410.395 175.006C412.784 175.006 414.721 173.071 414.721 170.683C414.721 168.296 412.784 166.361 410.395 166.361C408.006 166.361 406.068 168.296 406.068 170.683C406.068 173.071 408.006 175.006 410.395 175.006Z" fill="#FFD101"/>
<path d="M426.259 175.006C428.648 175.006 430.585 173.071 430.585 170.683C430.585 168.296 428.648 166.361 426.259 166.361C423.87 166.361 421.932 168.296 421.932 170.683C421.932 173.071 423.87 175.006 426.259 175.006Z" fill="#FFD101"/>
<path d="M442.086 175.006C444.475 175.006 446.412 173.071 446.412 170.683C446.412 168.296 444.475 166.361 442.086 166.361C439.697 166.361 437.759 168.296 437.759 170.683C437.759 173.071 439.697 175.006 442.086 175.006Z" fill="#FFD101"/>
<path d="M457.95 175.006C460.339 175.006 462.277 173.071 462.277 170.683C462.277 168.296 460.339 166.361 457.95 166.361C455.561 166.361 453.624 168.296 453.624 170.683C453.624 173.071 455.561 175.006 457.95 175.006Z" fill="#FFD101"/>
<path d="M473.814 175.006C476.203 175.006 478.14 173.071 478.14 170.683C478.14 168.296 476.203 166.361 473.814 166.361C471.425 166.361 469.487 168.296 469.487 170.683C469.487 173.071 471.425 175.006 473.814 175.006Z" fill="#FFD101"/>
<path d="M489.678 175.006C492.067 175.006 494.005 173.071 494.005 170.683C494.005 168.296 492.067 166.361 489.678 166.361C487.289 166.361 485.352 168.296 485.352 170.683C485.352 173.071 487.289 175.006 489.678 175.006Z" fill="#FFD101"/>
<path d="M378.666 195.399C381.055 195.399 382.993 193.464 382.993 191.077C382.993 188.689 381.055 186.754 378.666 186.754C376.278 186.754 374.34 188.689 374.34 191.077C374.34 193.464 376.278 195.399 378.666 195.399Z" fill="#FFD101"/>
<path d="M394.531 195.399C396.92 195.399 398.857 193.464 398.857 191.077C398.857 188.689 396.92 186.754 394.531 186.754C392.142 186.754 390.204 188.689 390.204 191.077C390.204 193.464 392.142 195.399 394.531 195.399Z" fill="#FFD101"/>
<path d="M410.395 195.399C412.784 195.399 414.721 193.464 414.721 191.077C414.721 188.689 412.784 186.754 410.395 186.754C408.006 186.754 406.068 188.689 406.068 191.077C406.068 193.464 408.006 195.399 410.395 195.399Z" fill="#FFD101"/>
<path d="M426.259 195.399C428.648 195.399 430.585 193.464 430.585 191.077C430.585 188.689 428.648 186.754 426.259 186.754C423.87 186.754 421.932 188.689 421.932 191.077C421.932 193.464 423.87 195.399 426.259 195.399Z" fill="#FFD101"/>
<path d="M442.086 195.399C444.475 195.399 446.412 193.464 446.412 191.077C446.412 188.689 444.475 186.754 442.086 186.754C439.697 186.754 437.759 188.689 437.759 191.077C437.759 193.464 439.697 195.399 442.086 195.399Z" fill="#FFD101"/>
<path d="M457.95 195.399C460.339 195.399 462.277 193.464 462.277 191.077C462.277 188.689 460.339 186.754 457.95 186.754C455.561 186.754 453.624 188.689 453.624 191.077C453.624 193.464 455.561 195.399 457.95 195.399Z" fill="#FFD101"/>
<path d="M473.814 195.399C476.203 195.399 478.14 193.464 478.14 191.077C478.14 188.689 476.203 186.754 473.814 186.754C471.425 186.754 469.487 188.689 469.487 191.077C469.487 193.464 471.425 195.399 473.814 195.399Z" fill="#FFD101"/>
<path d="M489.678 195.399C492.067 195.399 494.005 193.464 494.005 191.077C494.005 188.689 492.067 186.754 489.678 186.754C487.289 186.754 485.352 188.689 485.352 191.077C485.352 193.464 487.289 195.399 489.678 195.399Z" fill="#FFD101"/>
<path d="M378.666 215.756C381.055 215.756 382.993 213.82 382.993 211.433C382.993 209.046 381.055 207.111 378.666 207.111C376.278 207.111 374.34 209.046 374.34 211.433C374.34 213.82 376.278 215.756 378.666 215.756Z" fill="#FFD101"/>
<path d="M394.531 215.756C396.92 215.756 398.857 213.82 398.857 211.433C398.857 209.046 396.92 207.111 394.531 207.111C392.142 207.111 390.204 209.046 390.204 211.433C390.204 213.82 392.142 215.756 394.531 215.756Z" fill="#FFD101"/>
<path d="M410.395 215.756C412.784 215.756 414.721 213.82 414.721 211.433C414.721 209.046 412.784 207.111 410.395 207.111C408.006 207.111 406.068 209.046 406.068 211.433C406.068 213.82 408.006 215.756 410.395 215.756Z" fill="#FFD101"/>
<path d="M426.259 215.756C428.648 215.756 430.585 213.82 430.585 211.433C430.585 209.046 428.648 207.111 426.259 207.111C423.87 207.111 421.932 209.046 421.932 211.433C421.932 213.82 423.87 215.756 426.259 215.756Z" fill="#FFD101"/>
<path d="M442.086 215.756C444.475 215.756 446.412 213.82 446.412 211.433C446.412 209.046 444.475 207.111 442.086 207.111C439.697 207.111 437.759 209.046 437.759 211.433C437.759 213.82 439.697 215.756 442.086 215.756Z" fill="#FFD101"/>
<path d="M457.95 215.756C460.339 215.756 462.277 213.82 462.277 211.433C462.277 209.046 460.339 207.111 457.95 207.111C455.561 207.111 453.624 209.046 453.624 211.433C453.624 213.82 455.561 215.756 457.95 215.756Z" fill="#FFD101"/>
<path d="M473.814 215.756C476.203 215.756 478.14 213.82 478.14 211.433C478.14 209.046 476.203 207.111 473.814 207.111C471.425 207.111 469.487 209.046 469.487 211.433C469.487 213.82 471.425 215.756 473.814 215.756Z" fill="#FFD101"/>
<path d="M489.678 215.756C492.067 215.756 494.005 213.82 494.005 211.433C494.005 209.046 492.067 207.111 489.678 207.111C487.289 207.111 485.352 209.046 485.352 211.433C485.352 213.82 487.289 215.756 489.678 215.756Z" fill="#FFD101"/>
<path d="M378.666 236.112C381.055 236.112 382.993 234.177 382.993 231.79C382.993 229.402 381.055 227.467 378.666 227.467C376.278 227.467 374.34 229.402 374.34 231.79C374.34 234.177 376.278 236.112 378.666 236.112Z" fill="#2BBE54"/>
<path d="M394.531 236.112C396.92 236.112 398.857 234.177 398.857 231.79C398.857 229.402 396.92 227.467 394.531 227.467C392.142 227.467 390.204 229.402 390.204 231.79C390.204 234.177 392.142 236.112 394.531 236.112Z" fill="#2BBE54"/>
<path d="M410.395 236.112C412.784 236.112 414.721 234.177 414.721 231.79C414.721 229.402 412.784 227.467 410.395 227.467C408.006 227.467 406.068 229.402 406.068 231.79C406.068 234.177 408.006 236.112 410.395 236.112Z" fill="#2BBE54"/>
<path d="M426.259 236.112C428.648 236.112 430.585 234.177 430.585 231.79C430.585 229.402 428.648 227.467 426.259 227.467C423.87 227.467 421.932 229.402 421.932 231.79C421.932 234.177 423.87 236.112 426.259 236.112Z" fill="#2BBE54"/>
<path d="M442.086 236.112C444.475 236.112 446.412 234.177 446.412 231.79C446.412 229.402 444.475 227.467 442.086 227.467C439.697 227.467 437.759 229.402 437.759 231.79C437.759 234.177 439.697 236.112 442.086 236.112Z" fill="#2BBE54"/>
<path d="M457.95 236.112C460.339 236.112 462.277 234.177 462.277 231.79C462.277 229.402 460.339 227.467 457.95 227.467C455.561 227.467 453.624 229.402 453.624 231.79C453.624 234.177 455.561 236.112 457.95 236.112Z" fill="#2BBE54"/>
<path d="M473.814 236.112C476.203 236.112 478.14 234.177 478.14 231.79C478.14 229.402 476.203 227.467 473.814 227.467C471.425 227.467 469.487 229.402 469.487 231.79C469.487 234.177 471.425 236.112 473.814 236.112Z" fill="#2BBE54"/>
<path d="M489.678 236.112C492.067 236.112 494.005 234.177 494.005 231.79C494.005 229.402 492.067 227.467 489.678 227.467C487.289 227.467 485.352 229.402 485.352 231.79C485.352 234.177 487.289 236.112 489.678 236.112Z" fill="#2BBE54"/>
<path d="M378.666 256.505C381.055 256.505 382.993 254.57 382.993 252.183C382.993 249.795 381.055 247.86 378.666 247.86C376.278 247.86 374.34 249.795 374.34 252.183C374.34 254.57 376.278 256.505 378.666 256.505Z" fill="#2BBE54"/>
<path d="M394.531 256.505C396.92 256.505 398.857 254.57 398.857 252.183C398.857 249.795 396.92 247.86 394.531 247.86C392.142 247.86 390.204 249.795 390.204 252.183C390.204 254.57 392.142 256.505 394.531 256.505Z" fill="#2BBE54"/>
<path d="M410.395 256.505C412.784 256.505 414.721 254.57 414.721 252.183C414.721 249.795 412.784 247.86 410.395 247.86C408.006 247.86 406.068 249.795 406.068 252.183C406.068 254.57 408.006 256.505 410.395 256.505Z" fill="#2BBE54"/>
<path d="M426.259 256.505C428.648 256.505 430.585 254.57 430.585 252.183C430.585 249.795 428.648 247.86 426.259 247.86C423.87 247.86 421.932 249.795 421.932 252.183C421.932 254.57 423.87 256.505 426.259 256.505Z" fill="#2BBE54"/>
<path d="M442.086 256.505C444.475 256.505 446.412 254.57 446.412 252.183C446.412 249.795 444.475 247.86 442.086 247.86C439.697 247.86 437.759 249.795 437.759 252.183C437.759 254.57 439.697 256.505 442.086 256.505Z" fill="#2BBE54"/>
<path d="M457.95 256.505C460.339 256.505 462.277 254.57 462.277 252.183C462.277 249.795 460.339 247.86 457.95 247.86C455.561 247.86 453.624 249.795 453.624 252.183C453.624 254.57 455.561 256.505 457.95 256.505Z" fill="#2BBE54"/>
<path d="M473.814 256.505C476.203 256.505 478.14 254.57 478.14 252.183C478.14 249.795 476.203 247.86 473.814 247.86C471.425 247.86 469.487 249.795 469.487 252.183C469.487 254.57 471.425 256.505 473.814 256.505Z" fill="#2BBE54"/>
<path d="M489.678 256.505C492.067 256.505 494.005 254.57 494.005 252.183C494.005 249.795 492.067 247.86 489.678 247.86C487.289 247.86 485.352 249.795 485.352 252.183C485.352 254.57 487.289 256.505 489.678 256.505Z" fill="#2BBE54"/>
<path d="M378.666 276.825C381.055 276.825 382.993 274.89 382.993 272.502C382.993 270.115 381.055 268.18 378.666 268.18C376.278 268.18 374.34 270.115 374.34 272.502C374.34 274.89 376.278 276.825 378.666 276.825Z" fill="#2BBE54"/>
<path d="M394.531 276.825C396.92 276.825 398.857 274.89 398.857 272.502C398.857 270.115 396.92 268.18 394.531 268.18C392.142 268.18 390.204 270.115 390.204 272.502C390.204 274.89 392.142 276.825 394.531 276.825Z" fill="#2BBE54"/>
<path d="M410.395 276.825C412.784 276.825 414.721 274.89 414.721 272.502C414.721 270.115 412.784 268.18 410.395 268.18C408.006 268.18 406.068 270.115 406.068 272.502C406.068 274.89 408.006 276.825 410.395 276.825Z" fill="#2BBE54"/>
<path d="M426.259 276.825C428.648 276.825 430.585 274.89 430.585 272.502C430.585 270.115 428.648 268.18 426.259 268.18C423.87 268.18 421.932 270.115 421.932 272.502C421.932 274.89 423.87 276.825 426.259 276.825Z" fill="#2BBE54"/>
<path d="M442.086 276.825C444.475 276.825 446.412 274.89 446.412 272.502C446.412 270.115 444.475 268.18 442.086 268.18C439.697 268.18 437.759 270.115 437.759 272.502C437.759 274.89 439.697 276.825 442.086 276.825Z" fill="#2BBE54"/>
<path d="M457.95 276.825C460.339 276.825 462.277 274.89 462.277 272.502C462.277 270.115 460.339 268.18 457.95 268.18C455.561 268.18 453.624 270.115 453.624 272.502C453.624 274.89 455.561 276.825 457.95 276.825Z" fill="#2BBE54"/>
<path d="M473.814 276.825C476.203 276.825 478.14 274.89 478.14 272.502C478.14 270.115 476.203 268.18 473.814 268.18C471.425 268.18 469.487 270.115 469.487 272.502C469.487 274.89 471.425 276.825 473.814 276.825Z" fill="#2BBE54"/>
<path d="M489.678 276.825C492.067 276.825 494.005 274.89 494.005 272.502C494.005 270.115 492.067 268.18 489.678 268.18C487.289 268.18 485.352 270.115 485.352 272.502C485.352 274.89 487.289 276.825 489.678 276.825Z" fill="#2BBE54"/>
<path d="M513.526 312.814V306.75H514.214V307.681C514.602 307.135 515.131 306.651 515.989 306.651C517.102 306.651 518.204 307.529 518.204 309.052V309.07C518.204 310.575 517.113 311.48 515.989 311.48C515.131 311.48 514.572 311.023 514.214 310.494V312.814H513.526ZM515.867 310.862C516.762 310.862 517.497 310.199 517.497 309.079V309.061C517.497 307.959 516.754 307.269 515.867 307.269C515.005 307.269 514.188 308.004 514.188 309.052V309.07C514.188 310.145 515.005 310.862 515.867 310.862ZM519.938 311.381H519.113L520.467 309.598C519.724 309.428 519.284 308.936 519.284 308.219V308.21C519.284 307.323 519.99 306.75 521.096 306.75H523.336V311.381H522.656V309.661H521.221L519.938 311.381ZM522.656 307.323H521.103C520.411 307.323 519.975 307.681 519.975 308.21V308.219C519.975 308.756 520.386 309.115 521.103 309.106H522.656V307.323ZM527.412 306.714L529.22 310.754H529.749V312.608H529.124V311.381H524.982V312.608H524.353V310.754H524.882L526.694 306.714H527.412ZM527.053 307.404L525.589 310.772H528.488L527.053 307.404ZM534.279 311.381V305.8L533.095 306.167L532.925 305.594L534.46 305.066H534.977V311.381H534.279ZM539.09 311.489C537.466 311.489 536.446 310.02 536.446 308.264V308.246C536.446 306.49 537.492 305.003 539.108 305.003C540.72 305.003 541.745 306.472 541.745 308.228V308.246C541.745 310.001 540.702 311.489 539.09 311.489ZM539.108 310.843C540.291 310.843 541.009 309.634 541.009 308.264V308.246C541.009 306.884 540.266 305.648 539.09 305.648C537.914 305.648 537.178 306.848 537.178 308.228V308.246C537.178 309.607 537.925 310.843 539.108 310.843Z" fill="white"/>
<path d="M513.526 333.143V327.078H514.214V328.009C514.602 327.463 515.131 326.979 515.989 326.979C517.102 326.979 518.204 327.857 518.204 329.38V329.398C518.204 330.903 517.113 331.808 515.989 331.808C515.131 331.808 514.572 331.351 514.214 330.822V333.143H513.526ZM515.867 331.19C516.762 331.19 517.497 330.527 517.497 329.407V329.389C517.497 328.287 516.754 327.598 515.867 327.598C515.005 327.598 514.188 328.332 514.188 329.38V329.398C514.188 330.473 515.005 331.19 515.867 331.19ZM519.938 331.709H519.113L520.467 329.927C519.724 329.757 519.284 329.264 519.284 328.547V328.538C519.284 327.651 519.99 327.078 521.096 327.078H523.336V331.709H522.656V329.989H521.221L519.938 331.709ZM522.656 327.651H521.103C520.411 327.651 519.975 328.009 519.975 328.538V328.547C519.975 329.085 520.386 329.443 521.103 329.434H522.656V327.651ZM527.412 327.042L529.22 331.082H529.749V332.937H529.124V331.709H524.982V332.937H524.353V331.082H524.882L526.694 327.042H527.412ZM527.053 327.732L525.589 331.1H528.488L527.053 327.732ZM534.279 331.709V326.128L533.095 326.496L532.925 325.922L534.46 325.394H534.977V331.709H534.279ZM537.492 331.709V326.128L536.309 326.496L536.139 325.922L537.673 325.394H538.191V331.709H537.492Z" fill="white"/>
<path d="M378.666 313.695C381.055 313.695 382.993 311.76 382.993 309.373C382.993 306.985 381.055 305.05 378.666 305.05C376.278 305.05 374.34 306.985 374.34 309.373C374.34 311.76 376.278 313.695 378.666 313.695Z" fill="#69C1E7"/>
<path d="M394.531 313.695C396.92 313.695 398.857 311.76 398.857 309.373C398.857 306.985 396.92 305.05 394.531 305.05C392.142 305.05 390.204 306.985 390.204 309.373C390.204 311.76 392.142 313.695 394.531 313.695Z" fill="#69C1E7"/>
<path d="M410.395 313.695C412.784 313.695 414.721 311.76 414.721 309.373C414.721 306.985 412.784 305.05 410.395 305.05C408.006 305.05 406.068 306.985 406.068 309.373C406.068 311.76 408.006 313.695 410.395 313.695Z" fill="#69C1E7"/>
<path d="M426.259 313.695C428.648 313.695 430.585 311.76 430.585 309.373C430.585 306.985 428.648 305.05 426.259 305.05C423.87 305.05 421.932 306.985 421.932 309.373C421.932 311.76 423.87 313.695 426.259 313.695Z" fill="#69C1E7"/>
<path d="M442.086 313.695C444.475 313.695 446.412 311.76 446.412 309.373C446.412 306.985 444.475 305.05 442.086 305.05C439.697 305.05 437.759 306.985 437.759 309.373C437.759 311.76 439.697 313.695 442.086 313.695Z" fill="#69C1E7"/>
<path d="M457.95 313.695C460.339 313.695 462.277 311.76 462.277 309.373C462.277 306.985 460.339 305.05 457.95 305.05C455.561 305.05 453.624 306.985 453.624 309.373C453.624 311.76 455.561 313.695 457.95 313.695Z" fill="#69C1E7"/>
<path d="M473.814 313.695C476.203 313.695 478.14 311.76 478.14 309.373C478.14 306.985 476.203 305.05 473.814 305.05C471.425 305.05 469.487 306.985 469.487 309.373C469.487 311.76 471.425 313.695 473.814 313.695Z" fill="#69C1E7"/>
<path d="M489.678 313.695C492.067 313.695 494.005 311.76 494.005 309.373C494.005 306.985 492.067 305.05 489.678 305.05C487.289 305.05 485.352 306.985 485.352 309.373C485.352 311.76 487.289 313.695 489.678 313.695Z" fill="#69C1E7"/>
<path d="M378.666 334.015C381.055 334.015 382.993 332.079 382.993 329.692C382.993 327.305 381.055 325.37 378.666 325.37C376.278 325.37 374.34 327.305 374.34 329.692C374.34 332.079 376.278 334.015 378.666 334.015Z" fill="#69C1E7"/>
<path d="M394.531 334.015C396.92 334.015 398.857 332.079 398.857 329.692C398.857 327.305 396.92 325.37 394.531 325.37C392.142 325.37 390.204 327.305 390.204 329.692C390.204 332.079 392.142 334.015 394.531 334.015Z" fill="#69C1E7"/>
<path d="M410.395 334.015C412.784 334.015 414.721 332.079 414.721 329.692C414.721 327.305 412.784 325.37 410.395 325.37C408.006 325.37 406.068 327.305 406.068 329.692C406.068 332.079 408.006 334.015 410.395 334.015Z" fill="#69C1E7"/>
<path d="M426.259 334.015C428.648 334.015 430.585 332.079 430.585 329.692C430.585 327.305 428.648 325.37 426.259 325.37C423.87 325.37 421.932 327.305 421.932 329.692C421.932 332.079 423.87 334.015 426.259 334.015Z" fill="#69C1E7"/>
<path d="M314.693 334.015C317.082 334.015 319.019 332.079 319.019 329.692C319.019 327.305 317.082 325.37 314.693 325.37C312.303 325.37 310.366 327.305 310.366 329.692C310.366 332.079 312.303 334.015 314.693 334.015Z" fill="#69C1E7"/>
<path d="M330.557 334.015C332.947 334.015 334.884 332.079 334.884 329.692C334.884 327.305 332.947 325.37 330.557 325.37C328.167 325.37 326.23 327.305 326.23 329.692C326.23 332.079 328.167 334.015 330.557 334.015Z" fill="#69C1E7"/>
<path d="M346.421 334.015C348.81 334.015 350.747 332.079 350.747 329.692C350.747 327.305 348.81 325.37 346.421 325.37C344.031 325.37 342.094 327.305 342.094 329.692C342.094 332.079 344.031 334.015 346.421 334.015Z" fill="#69C1E7"/>
<path d="M362.285 334.015C364.675 334.015 366.612 332.079 366.612 329.692C366.612 327.305 364.675 325.37 362.285 325.37C359.895 325.37 357.958 327.305 357.958 329.692C357.958 332.079 359.895 334.015 362.285 334.015Z" fill="#69C1E7"/>
<path d="M442.086 334.015C444.475 334.015 446.412 332.079 446.412 329.692C446.412 327.305 444.475 325.37 442.086 325.37C439.697 325.37 437.759 327.305 437.759 329.692C437.759 332.079 439.697 334.015 442.086 334.015Z" fill="#69C1E7"/>
<path d="M457.95 334.015C460.339 334.015 462.277 332.079 462.277 329.692C462.277 327.305 460.339 325.37 457.95 325.37C455.561 325.37 453.624 327.305 453.624 329.692C453.624 332.079 455.561 334.015 457.95 334.015Z" fill="#69C1E7"/>
<path d="M473.814 334.015C476.203 334.015 478.14 332.079 478.14 329.692C478.14 327.305 476.203 325.37 473.814 325.37C471.425 325.37 469.487 327.305 469.487 329.692C469.487 332.079 471.425 334.015 473.814 334.015Z" fill="#69C1E7"/>
<path d="M489.678 334.015C492.067 334.015 494.005 332.079 494.005 329.692C494.005 327.305 492.067 325.37 489.678 325.37C487.289 325.37 485.352 327.305 485.352 329.692C485.352 332.079 487.289 334.015 489.678 334.015Z" fill="#69C1E7"/>
<path d="M25.1855 236.379H24.5087L22.0237 233.564C20.9587 232.378 20.3597 231.946 19.5831 231.946C18.6734 231.946 18.0965 232.666 18.0965 233.509C18.0965 234.395 18.5514 234.972 19.4278 235.592L18.9619 236.235C17.919 235.515 17.3089 234.817 17.3089 233.442C17.3089 232.046 18.2408 231.037 19.5054 231.037H19.5276C20.6592 231.037 21.3581 231.636 22.5451 232.999L24.3867 235.071V230.96H25.1855V236.379ZM21.9239 225.136V222.066C20.8589 222.188 20.0712 222.986 20.0712 224.094C20.0712 224.903 20.404 225.491 20.8589 225.989L20.282 226.466C19.7495 225.856 19.3279 225.136 19.3279 224.061C19.3279 222.387 20.5815 221.179 22.3122 221.179H22.3344C23.9429 221.179 25.3186 222.387 25.3186 224.083C25.3186 225.103 24.9747 225.834 24.3423 226.499L23.7544 226.001C24.2758 225.48 24.5753 224.881 24.5753 224.094C24.5753 222.986 23.7322 222.144 22.645 222.055V225.136H21.9239ZM25.1855 218.32H20.2154V220.614H19.45V215.161H20.2154V217.467H25.1855V218.32ZM25.3075 212.528C25.3075 213.592 24.7084 214.667 23.5214 214.667H23.4992C22.3011 214.667 21.6465 213.67 21.6465 212.218C21.6465 211.475 21.7464 210.977 21.8906 210.456H21.6909C20.6592 210.456 20.1267 211.088 20.1267 212.163C20.1267 212.839 20.2931 213.371 20.5483 213.903L19.8494 214.158C19.5498 213.526 19.3723 212.916 19.3723 212.074C19.3723 211.265 19.5831 210.644 20.0047 210.223C20.393 209.835 20.9587 209.636 21.6798 209.636H25.1855V210.456H24.3201C24.8415 210.855 25.3075 211.509 25.3075 212.528ZM24.6308 212.362C24.6308 211.298 23.9873 210.445 23.0776 210.445H22.5229C22.4009 210.877 22.2789 211.42 22.2789 212.129C22.2789 213.204 22.7448 213.803 23.4659 213.803H23.4881C24.2092 213.803 24.6308 213.127 24.6308 212.362ZM19.45 203.539L21.9128 203.55V202.574L19.45 200.502V199.471L22.2789 201.909L25.1855 199.393V200.424L22.6672 202.574V203.55L25.1855 203.539V204.381L22.6672 204.37V205.367L25.1855 207.495V208.526L22.29 206.01L19.45 208.449V207.407L21.9128 205.334V204.37L19.45 204.381V203.539ZM26.1839 191.636L26.7497 192.001C25.6403 193.985 24.0539 195.071 22.0015 195.071H21.9904C19.9603 195.071 18.3628 193.985 17.2534 192.001L17.8192 191.636C18.8953 193.331 20.2154 194.207 22.0015 194.207H22.0126C23.7765 194.207 25.1189 193.331 26.1839 191.636ZM25.3186 187.819C25.3186 189.504 23.954 190.756 22.3454 190.756H22.3233C20.6925 190.756 19.3279 189.504 19.3279 187.819C19.3279 186.733 19.7717 186.068 20.3486 185.525L20.9476 186.09C20.4706 186.545 20.0823 187.043 20.0823 187.83C20.0823 188.994 21.0586 189.881 22.3011 189.881H22.3233C23.5658 189.881 24.5531 188.972 24.5531 187.775C24.5531 187.032 24.187 186.478 23.6989 186.024L24.2092 185.481C24.8637 186.057 25.3186 186.744 25.3186 187.819ZM19.4056 181.287L25.1855 178.683V179.636L20.4595 181.686L25.1855 183.748V184.668L19.4056 182.074V181.287ZM25.3186 175.125C25.3186 176.688 24.1094 177.985 22.3344 177.985H22.3122C20.6592 177.985 19.3279 176.832 19.3279 175.236C19.3279 173.54 20.6814 172.565 22.3565 172.565C22.4786 172.565 22.534 172.565 22.6339 172.576V177.12C23.8764 176.998 24.5753 176.123 24.5753 175.103C24.5753 174.305 24.2536 173.773 23.7654 173.296L24.2425 172.764C24.897 173.341 25.3186 174.028 25.3186 175.125ZM22.0015 177.12V173.429C20.9698 173.518 20.049 174.105 20.049 175.258C20.049 176.267 20.8922 176.998 22.0015 177.12ZM25.1855 171.071H19.45V168.178C19.45 166.981 19.9936 166.238 20.9254 166.238H20.9365C21.6355 166.238 22.0348 166.649 22.2456 167.269C22.4564 166.516 22.8447 166.017 23.6323 166.017H23.6434C24.6308 166.017 25.1965 166.848 25.1855 168.178V171.071ZM21.9572 170.228V168.355C21.9572 167.524 21.58 167.103 21.0031 167.103H20.992C20.4706 167.103 20.1267 167.513 20.1378 168.278V170.228H21.9572ZM22.6228 170.228H24.4976V168.2C24.4976 167.347 24.1426 166.87 23.599 166.87H23.5879C23 166.87 22.6117 167.358 22.6228 168.289V170.228ZM25.3075 162.751C25.3075 163.815 24.7084 164.89 23.5214 164.89H23.4992C22.3011 164.89 21.6465 163.892 21.6465 162.441C21.6465 161.698 21.7464 161.199 21.8906 160.678H21.6909C20.6592 160.678 20.1267 161.31 20.1267 162.385C20.1267 163.061 20.2931 163.593 20.5483 164.125L19.8494 164.38C19.5498 163.748 19.3723 163.139 19.3723 162.296C19.3723 161.487 19.5831 160.867 20.0047 160.446C20.393 160.058 20.9587 159.858 21.6798 159.858H25.1855V160.678H24.3201C24.8415 161.077 25.3075 161.731 25.3075 162.751ZM24.6308 162.585C24.6308 161.521 23.9873 160.667 23.0776 160.667H22.5229C22.4009 161.099 22.2789 161.643 22.2789 162.352C22.2789 163.427 22.7448 164.025 23.4659 164.025H23.4881C24.2092 164.025 24.6308 163.349 24.6308 162.585ZM26.7497 158.006L26.1839 158.372C25.1078 156.676 23.7876 155.801 22.0015 155.801H21.9904C20.2265 155.801 18.8842 156.676 17.8192 158.372L17.2534 158.006C18.3628 156.022 19.9492 154.936 22.0015 154.936H22.0126C24.0428 154.936 25.6403 156.022 26.7497 158.006Z" fill="white"/>
<path d="M39.6789 116.781C42.0274 116.781 43.9315 114.879 43.9315 112.533C43.9315 110.186 42.0274 108.284 39.6789 108.284C37.3303 108.284 35.4263 110.186 35.4263 112.533C35.4263 114.879 37.3303 116.781 39.6789 116.781Z" fill="#2BBE54"/>
<path d="M39.6789 135.254C42.0274 135.254 43.9315 133.351 43.9315 131.005C43.9315 128.659 42.0274 126.756 39.6789 126.756C37.3303 126.756 35.4263 128.659 35.4263 131.005C35.4263 133.351 37.3303 135.254 39.6789 135.254Z" fill="#2BBE54"/>
<path d="M39.6789 153.726C42.0274 153.726 43.9315 151.823 43.9315 149.477C43.9315 147.131 42.0274 145.229 39.6789 145.229C37.3303 145.229 35.4263 147.131 35.4263 149.477C35.4263 151.823 37.3303 153.726 39.6789 153.726Z" fill="#2BBE54"/>
<path d="M39.6789 172.198C42.0274 172.198 43.9315 170.296 43.9315 167.95C43.9315 165.603 42.0274 163.701 39.6789 163.701C37.3303 163.701 35.4263 165.603 35.4263 167.95C35.4263 170.296 37.3303 172.198 39.6789 172.198Z" fill="#2BBE54"/>
<path d="M39.6789 190.67C42.0274 190.67 43.9315 188.768 43.9315 186.422C43.9315 184.075 42.0274 182.173 39.6789 182.173C37.3303 182.173 35.4263 184.075 35.4263 186.422C35.4263 188.768 37.3303 190.67 39.6789 190.67Z" fill="#2BBE54"/>
<path d="M39.6789 209.142C42.0274 209.142 43.9315 207.24 43.9315 204.894C43.9315 202.548 42.0274 200.645 39.6789 200.645C37.3303 200.645 35.4263 202.548 35.4263 204.894C35.4263 207.24 37.3303 209.142 39.6789 209.142Z" fill="#2BBE54"/>
<path d="M39.6789 227.615C42.0274 227.615 43.9315 225.712 43.9315 223.366C43.9315 221.02 42.0274 219.117 39.6789 219.117C37.3303 219.117 35.4263 221.02 35.4263 223.366C35.4263 225.712 37.3303 227.615 39.6789 227.615Z" fill="#2BBE54"/>
<path d="M39.6789 246.087C42.0274 246.087 43.9315 244.185 43.9315 241.838C43.9315 239.492 42.0274 237.59 39.6789 237.59C37.3303 237.59 35.4263 239.492 35.4263 241.838C35.4263 244.185 37.3303 246.087 39.6789 246.087Z" fill="#2BBE54"/>
<path d="M39.6789 264.559C42.0274 264.559 43.9315 262.657 43.9315 260.311C43.9315 257.964 42.0274 256.062 39.6789 256.062C37.3303 256.062 35.4263 257.964 35.4263 260.311C35.4263 262.657 37.3303 264.559 39.6789 264.559Z" fill="#2BBE54"/>
<path d="M39.6789 283.031C42.0274 283.031 43.9315 281.129 43.9315 278.783C43.9315 276.436 42.0274 274.534 39.6789 274.534C37.3303 274.534 35.4263 276.436 35.4263 278.783C35.4263 281.129 37.3303 283.031 39.6789 283.031Z" fill="#2BBE54"/>
<path d="M77.2534 223.882H77.9133C77.9692 224.21 78.0086 224.773 78.0315 225.571C78.0512 226.149 78.0906 226.596 78.1497 226.911C78.2056 227.223 78.3155 227.495 78.4797 227.728C78.6406 227.961 78.8868 228.158 79.2184 228.319C79.5467 228.477 79.9145 228.575 80.3216 228.615L81.0751 228.684C80.4611 228.497 80.0113 228.19 79.7257 227.763C79.44 227.333 79.2972 226.857 79.2972 226.335C79.2972 225.54 79.5763 224.877 80.1344 224.345C80.6926 223.81 81.3574 223.542 82.129 223.542C82.894 223.542 83.5523 223.808 84.1039 224.34C84.6554 224.872 84.9312 225.537 84.9312 226.335C84.9312 227.152 84.6259 227.845 84.0152 228.413C83.4045 228.981 82.4426 229.265 81.1293 229.265C80.2132 229.265 79.5205 229.161 79.051 228.955C78.5782 228.745 78.2384 228.505 78.0315 228.236C77.8247 227.966 77.6622 227.618 77.544 227.192C77.4258 226.765 77.3519 225.965 77.3224 224.793C77.3125 224.432 77.2895 224.128 77.2534 223.882ZM82.1438 224.242C81.5495 224.242 81.039 224.448 80.6122 224.862C80.1853 225.276 79.9719 225.767 79.9719 226.335C79.9719 226.899 80.1853 227.389 80.6122 227.802C81.039 228.216 81.5495 228.423 82.1438 228.423C82.7348 228.423 83.2387 228.224 83.6557 227.827C84.0694 227.426 84.2762 226.929 84.2762 226.335C84.2762 225.737 84.0694 225.24 83.6557 224.842C83.2387 224.442 82.7348 224.242 82.1438 224.242Z" fill="white"/>
<path d="M79.2972 219.221C79.2972 218.397 79.596 217.714 80.1935 217.172C80.7386 216.68 81.3837 216.434 82.129 216.434C82.8776 216.434 83.5326 216.695 84.094 217.217C84.6522 217.736 84.9312 218.404 84.9312 219.221C84.9312 220.042 84.6522 220.713 84.094 221.235C83.5326 221.754 82.8776 222.014 82.129 222.014C81.387 222.014 80.7435 221.767 80.1985 221.275C79.5976 220.733 79.2972 220.049 79.2972 219.221ZM79.9719 219.221C79.9719 219.792 80.1837 220.283 80.6072 220.694C81.0308 221.104 81.5429 221.309 82.1438 221.309C82.5312 221.309 82.8924 221.216 83.2272 221.029C83.5621 220.841 83.8215 220.589 84.0054 220.27C84.1859 219.952 84.2762 219.602 84.2762 219.221C84.2762 218.84 84.1859 218.491 84.0054 218.172C83.8215 217.854 83.5621 217.601 83.2272 217.414C82.8924 217.227 82.5312 217.133 82.1438 217.133C81.5429 217.133 81.0308 217.34 80.6072 217.754C80.1837 218.164 79.9719 218.653 79.9719 219.221Z" fill="white"/>
<path d="M79.4351 214.644V213.95H81.6907L79.4351 211.472V210.512L81.8877 213.226L84.7933 210.295V211.271L82.3161 213.733L82.5082 213.95H84.7933V214.644H79.4351Z" fill="white"/>
<path d="M79.2972 206.541C79.2972 205.717 79.596 205.034 80.1935 204.492C80.7386 204 81.3837 203.753 82.129 203.753C82.8776 203.753 83.5326 204.014 84.094 204.536C84.6522 205.055 84.9312 205.723 84.9312 206.541C84.9312 207.362 84.6522 208.033 84.094 208.555C83.5326 209.074 82.8776 209.333 82.129 209.333C81.387 209.333 80.7435 209.087 80.1985 208.594C79.5976 208.053 79.2972 207.368 79.2972 206.541ZM79.9719 206.541C79.9719 207.112 80.1837 207.603 80.6072 208.013C81.0308 208.424 81.5429 208.629 82.1438 208.629C82.5312 208.629 82.8924 208.535 83.2272 208.348C83.5621 208.161 83.8215 207.908 84.0054 207.59C84.1859 207.271 84.2762 206.922 84.2762 206.541C84.2762 206.16 84.1859 205.81 84.0054 205.492C83.8215 205.173 83.5621 204.92 83.2272 204.733C82.8924 204.546 82.5312 204.453 82.1438 204.453C81.5429 204.453 81.0308 204.659 80.6072 205.073C80.1837 205.484 79.9719 205.973 79.9719 206.541Z" fill="white"/>
<path d="M84.7933 200.407V201.964H79.4351L79.4351 200.432C79.4351 199.848 79.5697 199.427 79.839 199.171C80.1082 198.912 80.4234 198.782 80.7845 198.782C81.3295 198.782 81.6989 199.022 81.8926 199.501C82.1389 198.805 82.6133 198.457 83.3159 198.457C84.3009 198.457 84.7933 199.107 84.7933 200.407ZM80.031 201.269H81.7055V200.821C81.7055 200.414 81.689 200.148 81.6562 200.023C81.6234 199.898 81.5429 199.782 81.4149 199.674C81.2836 199.562 81.1112 199.506 80.8978 199.506C80.6745 199.506 80.4874 199.564 80.3364 199.678C80.1853 199.793 80.0967 199.915 80.0704 200.043C80.0442 200.168 80.031 200.427 80.031 200.821V201.269ZM82.3358 201.269H84.2122V200.53C84.2122 200.182 84.1909 199.935 84.1482 199.787C84.1022 199.636 84.0054 199.508 83.8576 199.403C83.7099 199.294 83.5227 199.24 83.2962 199.24C83.004 199.24 82.7709 199.332 82.5969 199.516C82.4228 199.7 82.3358 199.943 82.3358 200.245V201.269Z" fill="white"/>
<path d="M79.2972 194.205C79.2972 193.381 79.596 192.698 80.1935 192.156C80.7386 191.664 81.3837 191.418 82.129 191.418C82.8776 191.418 83.5326 191.679 84.094 192.201C84.6522 192.719 84.9312 193.387 84.9312 194.205C84.9312 195.026 84.6522 195.697 84.094 196.219C83.5326 196.738 82.8776 196.997 82.129 196.997C81.387 196.997 80.7435 196.751 80.1985 196.259C79.5976 195.717 79.2972 195.032 79.2972 194.205ZM79.9719 194.205C79.9719 194.776 80.1837 195.267 80.6072 195.678C81.0308 196.088 81.5429 196.293 82.1438 196.293C82.5312 196.293 82.8924 196.2 83.2272 196.012C83.5621 195.825 83.8215 195.572 84.0054 195.254C84.1859 194.936 84.2762 194.586 84.2762 194.205C84.2762 193.824 84.1859 193.474 84.0054 193.156C83.8215 192.838 83.5621 192.585 83.2272 192.398C82.8923 192.21 82.5312 192.117 82.1438 192.117C81.5429 192.117 81.0308 192.324 80.6072 192.737C80.1837 193.148 79.9719 193.637 79.9719 194.205Z" fill="white"/>
<path d="M79.4351 188.938H83.3996L79.4351 185.003V184.949H84.7933V185.639H80.8633L84.7933 189.544V189.628H79.4351V188.938ZM77.283 189.032L77.283 188.382C77.4537 188.27 77.5817 188.121 77.6671 187.934C77.7525 187.747 77.7951 187.523 77.7951 187.264C77.7951 187.001 77.7574 186.79 77.6819 186.629C77.6064 186.468 77.4734 186.315 77.283 186.171L77.283 185.54C77.5785 185.612 77.8263 185.798 78.0266 186.097C78.2236 186.392 78.3221 186.783 78.3221 187.269C78.3221 187.752 78.2253 188.146 78.0315 188.451C77.8345 188.756 77.585 188.95 77.283 189.032Z" fill="white"/>
<path d="M79.4351 179.597V178.912H80.4201C80.0458 178.64 79.7651 178.326 79.5779 177.972C79.3908 177.617 79.2972 177.222 79.2972 176.785C79.2972 176.023 79.5714 175.371 80.1197 174.83C80.668 174.288 81.3279 174.017 82.0995 174.017C82.8874 174.017 83.5572 174.286 84.1088 174.825C84.6571 175.36 84.9312 176.007 84.9312 176.765C84.9312 177.192 84.8426 177.584 84.6653 177.942C84.488 178.3 84.2237 178.624 83.8724 178.912H86.7534V179.597H79.4351ZM79.9621 176.839C79.9621 177.437 80.1706 177.941 80.5875 178.351C81.0045 178.758 81.5232 178.962 82.1438 178.962C82.5509 178.962 82.917 178.871 83.242 178.691C83.5671 178.507 83.8248 178.246 84.0152 177.908C84.2056 177.566 84.3009 177.207 84.3009 176.829C84.3009 176.458 84.2056 176.11 84.0152 175.785C83.8215 175.457 83.5523 175.196 83.2075 175.002C82.8628 174.808 82.5016 174.712 82.1241 174.712C81.7432 174.712 81.3821 174.808 81.0406 175.002C80.6992 175.193 80.4349 175.45 80.2477 175.775C80.0573 176.1 79.9621 176.455 79.9621 176.839Z" fill="white"/>
<path d="M82.3949 169.957V170.45L84.7933 171.976V172.72L82.326 171.11C82.2767 171.51 82.1257 171.835 81.8729 172.085C81.6168 172.334 81.3 172.459 80.9224 172.459C80.4496 172.459 80.0836 172.316 79.8242 172.03C79.5648 171.742 79.4351 171.364 79.4351 170.898V169.268H84.7933V169.957H82.3949ZM80.031 169.957V170.41C80.031 170.85 80.0589 171.146 80.1147 171.297C80.1706 171.448 80.2674 171.568 80.4053 171.656C80.5399 171.745 80.7221 171.789 80.952 171.789C81.1719 171.789 81.3542 171.732 81.4986 171.617C81.6398 171.502 81.7268 171.374 81.7596 171.233C81.7925 171.091 81.8089 170.817 81.8089 170.41V169.957H80.031Z" fill="white"/>
<path d="M84.2073 167.178L79.4351 165.109V164.75L84.2073 162.696V162.051L85.4779 162.051V162.716H84.7933V167.148H85.5074V167.828H84.2073V167.178ZM80.4989 164.942L84.2073 166.508V163.44L80.4989 164.942Z" fill="white"/>
<path d="M99.6789 116.781C102.027 116.781 103.931 114.879 103.931 112.533C103.931 110.186 102.027 108.284 99.6789 108.284C97.3303 108.284 95.4263 110.186 95.4263 112.533C95.4263 114.879 97.3303 116.781 99.6789 116.781Z" fill="#2BBE54"/>
<path d="M99.6789 135.254C102.027 135.254 103.931 133.351 103.931 131.005C103.931 128.659 102.027 126.756 99.6789 126.756C97.3303 126.756 95.4263 128.659 95.4263 131.005C95.4263 133.351 97.3303 135.254 99.6789 135.254Z" fill="#2BBE54"/>
<path d="M99.6789 153.726C102.027 153.726 103.931 151.823 103.931 149.477C103.931 147.131 102.027 145.229 99.6789 145.229C97.3303 145.229 95.4263 147.131 95.4263 149.477C95.4263 151.823 97.3303 153.726 99.6789 153.726Z" fill="#2BBE54"/>
<path d="M99.6789 172.198C102.027 172.198 103.931 170.296 103.931 167.95C103.931 165.603 102.027 163.701 99.6789 163.701C97.3303 163.701 95.4263 165.603 95.4263 167.95C95.4263 170.296 97.3303 172.198 99.6789 172.198Z" fill="#2BBE54"/>
<path d="M99.6789 190.67C102.027 190.67 103.931 188.768 103.931 186.422C103.931 184.075 102.027 182.173 99.6789 182.173C97.3303 182.173 95.4263 184.075 95.4263 186.422C95.4263 188.768 97.3303 190.67 99.6789 190.67Z" fill="#2BBE54"/>
<path d="M99.6789 209.142C102.027 209.142 103.931 207.24 103.931 204.894C103.931 202.548 102.027 200.645 99.6789 200.645C97.3303 200.645 95.4263 202.548 95.4263 204.894C95.4263 207.24 97.3303 209.142 99.6789 209.142Z" fill="#2BBE54"/>
<path d="M99.6789 227.615C102.027 227.615 103.931 225.712 103.931 223.366C103.931 221.02 102.027 219.117 99.6789 219.117C97.3303 219.117 95.4263 221.02 95.4263 223.366C95.4263 225.712 97.3303 227.615 99.6789 227.615Z" fill="#2BBE54"/>
<path d="M99.6789 246.087C102.027 246.087 103.931 244.185 103.931 241.838C103.931 239.492 102.027 237.59 99.6789 237.59C97.3303 237.59 95.4263 239.492 95.4263 241.838C95.4263 244.185 97.3303 246.087 99.6789 246.087Z" fill="#2BBE54"/>
<path d="M99.6789 264.559C102.027 264.559 103.931 262.657 103.931 260.311C103.931 257.964 102.027 256.062 99.6789 256.062C97.3303 256.062 95.4263 257.964 95.4263 260.311C95.4263 262.657 97.3303 264.559 99.6789 264.559Z" fill="#2BBE54"/>
<path d="M99.6789 283.031C102.027 283.031 103.931 281.129 103.931 278.783C103.931 276.436 102.027 274.534 99.6789 274.534C97.3303 274.534 95.4263 276.436 95.4263 278.783C95.4263 281.129 97.3303 283.031 99.6789 283.031Z" fill="#2BBE54"/>
<path d="M312.678 363.384V362.708L315.496 360.225C316.683 359.161 317.116 358.563 317.116 357.787C317.116 356.878 316.395 356.302 315.552 356.302C314.664 356.302 314.087 356.756 313.466 357.632L312.822 357.166C313.544 356.124 314.242 355.515 315.618 355.515C317.016 355.515 318.025 356.446 318.025 357.709V357.732C318.025 358.862 317.426 359.56 316.062 360.746L313.987 362.586H318.103V363.384H312.678ZM323.932 360.126H327.005C326.883 359.062 326.084 358.275 324.975 358.275C324.165 358.275 323.577 358.607 323.078 359.062L322.601 358.485C323.211 357.953 323.932 357.532 325.008 357.532C326.683 357.532 327.893 358.784 327.893 360.513V360.536C327.893 362.143 326.683 363.517 324.986 363.517C323.965 363.517 323.233 363.173 322.568 362.542L323.067 361.954C323.588 362.475 324.187 362.774 324.975 362.774C326.084 362.774 326.927 361.932 327.016 360.846H323.932V360.126ZM330.754 363.384V358.419H328.458V357.654H333.916V358.419H331.609V363.384H330.754ZM336.552 363.506C335.487 363.506 334.411 362.907 334.411 361.722V361.699C334.411 360.502 335.409 359.848 336.862 359.848C337.606 359.848 338.105 359.948 338.626 360.092V359.893C338.626 358.862 337.994 358.33 336.918 358.33C336.241 358.33 335.708 358.496 335.176 358.751L334.921 358.053C335.553 357.754 336.163 357.576 337.006 357.576C337.816 357.576 338.438 357.787 338.859 358.208C339.247 358.596 339.447 359.161 339.447 359.882V363.384H338.626V362.52C338.227 363.04 337.572 363.506 336.552 363.506ZM336.718 362.83C337.783 362.83 338.637 362.187 338.637 361.278V360.724C338.205 360.602 337.661 360.48 336.951 360.48C335.875 360.48 335.276 360.946 335.276 361.666V361.688C335.276 362.409 335.953 362.83 336.718 362.83ZM345.55 357.654L345.539 360.114H346.515L348.589 357.654H349.621L347.181 360.48L349.699 363.384H348.667L346.515 360.868H345.539L345.55 363.384H344.707L344.718 360.868H343.719L341.589 363.384H340.558L343.076 360.491L340.635 357.654H341.678L343.753 360.114H344.718L344.707 357.654H345.55ZM357.464 364.382L357.098 364.947C355.112 363.838 354.025 362.254 354.025 360.203V360.192C354.025 358.164 355.112 356.568 357.098 355.459L357.464 356.025C355.767 357.1 354.89 358.419 354.89 360.203V360.214C354.89 361.976 355.767 363.318 357.464 364.382ZM364.049 364.902V363.384H359.035V357.654H359.889V362.608H363.295V357.654H364.149V362.608H364.826V364.902H364.049ZM368.66 363.517C367.096 363.517 365.798 362.309 365.798 360.536V360.513C365.798 358.862 366.951 357.532 368.549 357.532C370.246 357.532 371.223 358.884 371.223 360.558C371.223 360.68 371.223 360.735 371.211 360.835H366.663C366.785 362.076 367.661 362.774 368.682 362.774C369.481 362.774 370.013 362.453 370.49 361.965L371.023 362.442C370.446 363.096 369.758 363.517 368.66 363.517ZM366.663 360.203H370.357C370.268 359.172 369.681 358.252 368.527 358.252C367.517 358.252 366.785 359.095 366.663 360.203ZM372.716 363.384V357.654H373.571V360.103H376.999V357.654H377.842V363.384H376.999V360.879H373.571V363.384H372.716ZM381.425 363.384V358.419H379.129V357.654H384.587V358.419H382.279V363.384H381.425ZM385.848 365.157V357.654H386.702V358.807C387.179 358.131 387.834 357.532 388.899 357.532C390.274 357.532 391.639 358.618 391.639 360.502V360.525C391.639 362.387 390.285 363.506 388.899 363.506C387.834 363.506 387.146 362.941 386.702 362.287V365.157H385.848ZM388.743 362.741C389.853 362.741 390.762 361.921 390.762 360.536V360.513C390.762 359.15 389.842 358.297 388.743 358.297C387.678 358.297 386.669 359.206 386.669 360.502V360.525C386.669 361.855 387.678 362.741 388.743 362.741ZM392.915 364.947L392.548 364.382C394.246 363.306 395.122 361.988 395.122 360.203V360.192C395.122 358.43 394.246 357.089 392.548 356.025L392.915 355.459C394.9 356.568 395.987 358.153 395.987 360.203V360.214C395.987 362.242 394.9 363.838 392.915 364.947Z" fill="white"/>
<path d="M220.396 384.259C222.744 384.259 224.648 382.357 224.648 380.011C224.648 377.665 222.744 375.762 220.396 375.762C218.047 375.762 216.143 377.665 216.143 380.011C216.143 382.357 218.047 384.259 220.396 384.259Z" fill="#2BBE54"/>
<path d="M239.625 384.259C241.974 384.259 243.878 382.357 243.878 380.011C243.878 377.665 241.974 375.762 239.625 375.762C237.277 375.762 235.373 377.665 235.373 380.011C235.373 382.357 237.277 384.259 239.625 384.259Z" fill="#2BBE54"/>
<path d="M258.854 384.259C261.203 384.259 263.107 382.357 263.107 380.011C263.107 377.665 261.203 375.762 258.854 375.762C256.506 375.762 254.602 377.665 254.602 380.011C254.602 382.357 256.506 384.259 258.854 384.259Z" fill="#2BBE54"/>
<path d="M278.083 384.259C280.432 384.259 282.336 382.357 282.336 380.011C282.336 377.665 280.432 375.762 278.083 375.762C275.735 375.762 273.831 377.665 273.831 380.011C273.831 382.357 275.735 384.259 278.083 384.259Z" fill="#2BBE54"/>
<path d="M297.313 384.259C299.661 384.259 301.565 382.357 301.565 380.011C301.565 377.665 299.661 375.762 297.313 375.762C294.964 375.762 293.06 377.665 293.06 380.011C293.06 382.357 294.964 384.259 297.313 384.259Z" fill="#2BBE54"/>
<path d="M316.542 384.259C318.89 384.259 320.794 382.357 320.794 380.011C320.794 377.665 318.89 375.762 316.542 375.762C314.193 375.762 312.289 377.665 312.289 380.011C312.289 382.357 314.193 384.259 316.542 384.259Z" fill="#2BBE54"/>
<path d="M335.771 384.259C338.119 384.259 340.023 382.357 340.023 380.011C340.023 377.665 338.119 375.762 335.771 375.762C333.422 375.762 331.518 377.665 331.518 380.011C331.518 382.357 333.422 384.259 335.771 384.259Z" fill="#2BBE54"/>
<path d="M355 384.259C357.349 384.259 359.253 382.357 359.253 380.011C359.253 377.665 357.349 375.762 355 375.762C352.652 375.762 350.748 377.665 350.748 380.011C350.748 382.357 352.652 384.259 355 384.259Z" fill="#2BBE54"/>
<path d="M374.229 384.259C376.577 384.259 378.482 382.357 378.482 380.011C378.482 377.665 376.577 375.762 374.229 375.762C371.881 375.762 369.977 377.665 369.977 380.011C369.977 382.357 371.881 384.259 374.229 384.259Z" fill="#2BBE54"/>
<path d="M393.458 384.259C395.806 384.259 397.711 382.357 397.711 380.011C397.711 377.665 395.806 375.762 393.458 375.762C391.11 375.762 389.206 377.665 389.206 380.011C389.206 382.357 391.11 384.259 393.458 384.259Z" fill="#2BBE54"/>
<path d="M412.688 384.259C415.036 384.259 416.94 382.357 416.94 380.011C416.94 377.665 415.036 375.762 412.688 375.762C410.339 375.762 408.435 377.665 408.435 380.011C408.435 382.357 410.339 384.259 412.688 384.259Z" fill="#2BBE54"/>
<path d="M431.917 384.259C434.265 384.259 436.169 382.357 436.169 380.011C436.169 377.665 434.265 375.762 431.917 375.762C429.568 375.762 427.664 377.665 427.664 380.011C427.664 382.357 429.568 384.259 431.917 384.259Z" fill="#2BBE54"/>
<path d="M451.146 384.259C453.494 384.259 455.398 382.357 455.398 380.011C455.398 377.665 453.494 375.762 451.146 375.762C448.797 375.762 446.893 377.665 446.893 380.011C446.893 382.357 448.797 384.259 451.146 384.259Z" fill="#2BBE54"/>
<path d="M470.375 384.259C472.723 384.259 474.628 382.357 474.628 380.011C474.628 377.665 472.723 375.762 470.375 375.762C468.027 375.762 466.123 377.665 466.123 380.011C466.123 382.357 468.027 384.259 470.375 384.259Z" fill="#2BBE54"/>
<path d="M489.604 384.259C491.952 384.259 493.857 382.357 493.857 380.011C493.857 377.665 491.952 375.762 489.604 375.762C487.256 375.762 485.352 377.665 485.352 380.011C485.352 382.357 487.256 384.259 489.604 384.259Z" fill="#2BBE54"/>
</svg>
