<svg width="172" height="84" viewBox="0 0 172 84" fill="none" xmlns="http://www.w3.org/2000/svg">
<g clip-path="url(#clip0_521_36589)">
<path d="M32.1578 18.1934L31.8588 16.6872H30.5589L30.2599 18.1934H28.9939L30.3369 11.431H32.0817L33.4248 18.1934H32.1578ZM31.6101 15.4386L31.2083 13.4152L30.8065 15.4386H31.6101Z" fill="#F2F2F2"/>
<path d="M38.7343 18.1934H35.6598V11.431H36.9042V16.9448H38.7343V18.1934Z" fill="#F2F2F2"/>
<path d="M45.6149 18.1934H44.3705V14.3845L43.2895 16.709L42.2116 14.3845V18.1934H40.9713V11.431H42.2116L43.2895 13.7555L44.3705 11.431H45.6149V18.1934Z" fill="#F2F2F2"/>
<path d="M51.0148 18.1934L50.7158 16.6872H49.4159L49.1169 18.1934H47.851L49.194 11.431H50.9388L52.2818 18.1934H51.0148ZM50.4671 15.4386L50.0654 13.4152L49.6636 15.4386H50.4671Z" fill="#F2F2F2"/>
<path d="M57.6776 12.6797H56.4455V18.1934H55.2011V12.6797H53.9701V11.431H57.6776V12.6797Z" fill="#F2F2F2"/>
<path d="M62.6583 15.7014V18.1934H61.4005V15.6931L59.9126 11.431H61.1868L62.0335 13.949L62.8679 11.431H64.1842L62.6583 15.7014Z" fill="#F2F2F2"/>
<path d="M76.926 71.8624L76.1348 72.5689H73.9934L73.1929 71.8624V70.7741H74.4332V71.3203H75.6858V69.8141H73.9934L73.1929 69.1034V66.5162L73.9934 65.8065H76.1348L76.926 66.512V67.562H75.6858V67.0551H74.4332V68.5613H76.1348L76.926 69.271V71.8624Z" fill="#F2F2F2"/>
<path d="M82.8685 67.0551H81.6364V72.5689H80.392V67.0551H79.161V65.8065H82.8685V67.0551Z" fill="#F2F2F2"/>
<path d="M87.7218 72.5689L87.4227 71.0627H86.1229L85.8238 72.5689H84.5579L85.9009 65.8065H87.6457L88.9877 72.5689H87.7218ZM87.1741 69.8141L86.7723 67.7907L86.3705 69.8141H87.1741Z" fill="#F2F2F2"/>
<path d="M93.8152 72.5689L92.4598 69.0258V72.5689H91.2236V65.8065H92.5533L93.9128 69.3538V65.8065H95.1448V72.5596L95.149 72.5689H93.8152Z" fill="#F2F2F2"/>
<path d="M100.437 65.8065L101.24 66.5213V71.8593L100.437 72.57H97.3839V65.8076H100.437V65.8065ZM100.001 67.0551H98.6283V71.3203H100.001V67.0551Z" fill="#F2F2F2"/>
<path d="M111.192 71.8582L110.38 72.5689H108.118L107.323 71.8624V65.8065H108.563V71.3203H109.952V65.8065H111.192V71.8582Z" fill="#F2F2F2"/>
<path d="M117.173 69.5555L116.369 70.2744H114.672V72.5689H113.432V65.8065H116.369L117.173 66.5213V69.5555ZM115.933 67.0551H114.671V69.0269H115.933V67.0551Z" fill="#F2F2F2"/>
<path d="M127.068 71.8624L126.257 72.5689H124.045L123.254 71.8624V66.5162L124.045 65.8065H126.257L127.068 66.5213V67.562H125.828V67.0551H124.494V71.3203H125.828V70.7741H127.068V71.8624Z" fill="#F2F2F2"/>
<path d="M132.377 72.5689H129.302V65.8065H130.547V71.3203H132.377V72.5689Z" fill="#F2F2F2"/>
<path d="M138.483 71.8582L137.671 72.5689H135.409L134.613 71.8624V65.8065H135.853V71.3203H137.243V65.8065H138.483V71.8582Z" fill="#F2F2F2"/>
<path d="M144.481 71.8624L143.685 72.568H140.722V65.8055H143.685L144.481 66.5162V68.5955L144.002 69.1811L144.481 69.779V71.8624ZM141.962 68.5614H143.236V67.0552H141.962V68.5614ZM141.962 71.3204H143.236V69.8142H141.962V71.3204Z" fill="#F2F2F2"/>
<mask id="mask0_521_36589" style="mask-type:luminance" maskUnits="userSpaceOnUse" x="0" y="0" width="172" height="84">
<path d="M172 0H0V84H172V0Z" fill="white"/>
</mask>
<g mask="url(#mask0_521_36589)">
<path d="M154.06 71.0597H150.019C149.788 71.0597 149.601 70.8714 149.601 70.6386C149.601 70.4059 149.788 70.2176 150.019 70.2176H154.06C156.507 70.2176 158.5 68.2128 158.5 65.7476V18.571C158.5 16.1059 156.508 14.101 154.06 14.101H69.2748C69.0436 14.101 68.8566 13.9128 68.8566 13.68C68.8566 13.4472 69.0436 13.259 69.2748 13.259H154.06C156.969 13.259 159.336 15.6414 159.336 18.571V65.7476C159.336 68.6762 156.969 71.0597 154.06 71.0597Z" fill="#F2F2F2"/>
</g>
<mask id="mask1_521_36589" style="mask-type:luminance" maskUnits="userSpaceOnUse" x="0" y="0" width="172" height="84">
<path d="M172 0H0V84H172V0Z" fill="white"/>
</mask>
<g mask="url(#mask1_521_36589)">
<path d="M154.06 68.8138H150.018C149.787 68.8138 149.6 68.6255 149.6 68.3928C149.6 68.16 149.787 67.9717 150.018 67.9717H154.06C155.278 67.9717 156.269 66.9734 156.269 65.7476V18.571C156.269 17.3441 155.277 16.3469 154.06 16.3469H69.2748C69.0436 16.3469 68.8566 16.1586 68.8566 15.9259C68.8566 15.6931 69.0436 15.5048 69.2748 15.5048H154.06C155.739 15.5048 157.105 16.8807 157.105 18.571V65.7476C157.105 67.439 155.74 68.8138 154.06 68.8138Z" fill="#F2F2F2"/>
</g>
<mask id="mask2_521_36589" style="mask-type:luminance" maskUnits="userSpaceOnUse" x="0" y="0" width="172" height="84">
<path d="M172 0H0V84H172V0Z" fill="white"/>
</mask>
<g mask="url(#mask2_521_36589)">
<path d="M67.5895 71.0597H17.9393C15.0302 71.0597 12.6627 68.6772 12.6627 65.7476V18.571C12.6627 15.6424 15.0292 13.259 17.9393 13.259H23.9485C24.1797 13.259 24.3668 13.4472 24.3668 13.68C24.3668 13.9128 24.1797 14.101 23.9485 14.101H17.9393C15.4916 14.101 13.4992 16.1059 13.4992 18.571V65.7476C13.4992 68.2117 15.4906 70.2176 17.9393 70.2176H67.5885C67.8197 70.2176 68.0067 70.4059 68.0067 70.6386C68.0067 70.8714 67.8207 71.0597 67.5895 71.0597Z" fill="#F2F2F2"/>
</g>
<mask id="mask3_521_36589" style="mask-type:luminance" maskUnits="userSpaceOnUse" x="0" y="0" width="172" height="84">
<path d="M172 0H0V84H172V0Z" fill="white"/>
</mask>
<g mask="url(#mask3_521_36589)">
<path d="M67.5896 68.8138H17.9394C16.2593 68.8138 14.8937 67.4379 14.8937 65.7476V18.571C14.8937 16.8807 16.2603 15.5048 17.9394 15.5048H23.9486C24.1798 15.5048 24.3669 15.6931 24.3669 15.9259C24.3669 16.1586 24.1798 16.3469 23.9486 16.3469H17.9394C16.7207 16.3469 15.7301 17.3452 15.7301 18.571V65.7476C15.7301 66.9745 16.7217 67.9717 17.9394 67.9717H67.5886C67.8198 67.9717 68.0068 68.16 68.0068 68.3928C68.0068 68.6255 67.8208 68.8138 67.5896 68.8138Z" fill="#F2F2F2"/>
</g>
<mask id="mask4_521_36589" style="mask-type:luminance" maskUnits="userSpaceOnUse" x="0" y="0" width="172" height="84">
<path d="M172 0H0V84H172V0Z" fill="white"/>
</mask>
<g mask="url(#mask4_521_36589)">
<path d="M40.8244 46.9366L40.4288 54.3373C38.9008 54.9569 37.5331 55.2673 36.3236 55.2673C33.4783 55.2673 31.082 54.2162 29.1378 52.1142C26.9625 49.7576 25.8743 46.4224 25.8743 42.1076C25.8743 38.07 26.8967 34.828 28.9395 32.3835C30.9834 29.9504 33.7146 28.7328 37.1313 28.7328C38.2421 28.7328 39.3735 28.9428 40.5274 29.3638V36.6818C39.505 35.6524 38.4548 35.1383 37.379 35.1383C35.9722 35.1383 34.8737 35.7414 34.0815 36.9476C33.2902 38.1652 32.8946 39.8462 32.8946 41.9918C32.8946 43.0314 32.9943 43.9614 33.1926 44.7797C33.3899 45.599 33.6725 46.29 34.0404 46.8538C34.4093 47.4176 34.8624 47.849 35.4009 48.148C35.9393 48.4469 36.5548 48.5959 37.2464 48.5959C38.4343 48.5959 39.6273 48.0435 40.8244 46.9366Z" fill="#F2F2F2"/>
</g>
<mask id="mask5_521_36589" style="mask-type:luminance" maskUnits="userSpaceOnUse" x="0" y="0" width="172" height="84">
<path d="M172 0H0V84H172V0Z" fill="white"/>
</mask>
<g mask="url(#mask5_521_36589)">
<path d="M42.86 54.8193V29.1973H55.6347V35.2211H49.7334V38.9555H55.0244V44.7466H49.7334V48.6621H55.6347V54.8193H42.86Z" fill="#F2F2F2"/>
</g>
<mask id="mask6_521_36589" style="mask-type:luminance" maskUnits="userSpaceOnUse" x="0" y="0" width="172" height="84">
<path d="M172 0H0V84H172V0Z" fill="white"/>
</mask>
<g mask="url(#mask6_521_36589)">
<path d="M58.0793 54.8193V29.1973H64.6404L68.0848 38.1911C68.2718 38.7228 68.4835 39.3311 68.7198 40.0169C68.9562 40.7028 69.2162 41.4931 69.5018 42.39L70.2109 44.6473C69.9581 42.4231 69.7659 40.5207 69.6344 38.939C69.5018 37.3573 69.4361 36.03 69.4361 34.9562V29.1983H75.9971V54.8204H69.4361L65.9752 45.3952C65.6125 44.3886 65.2857 43.4452 64.9949 42.5659C64.7041 41.6866 64.4482 40.8486 64.2273 40.0521C64.3712 41.8552 64.4749 43.4266 64.5407 44.7642C64.6065 46.1028 64.6394 47.2759 64.6394 48.2824V54.8204H58.0793V54.8193Z" fill="#F2F2F2"/>
</g>
<mask id="mask7_521_36589" style="mask-type:luminance" maskUnits="userSpaceOnUse" x="0" y="0" width="172" height="84">
<path d="M172 0H0V84H172V0Z" fill="white"/>
</mask>
<g mask="url(#mask7_521_36589)">
<path d="M87.7186 54.8193H80.8452V35.3369H77.0535V29.1973H91.6583V35.3369H87.7186V54.8193Z" fill="#F2F2F2"/>
</g>
<mask id="mask8_521_36589" style="mask-type:luminance" maskUnits="userSpaceOnUse" x="0" y="0" width="172" height="84">
<path d="M172 0H0V84H172V0Z" fill="white"/>
</mask>
<g mask="url(#mask8_521_36589)">
<path d="M110.825 54.8193H103.39L99.995 45.6921C99.9611 45.538 99.9036 45.3331 99.8224 45.0786C99.7402 44.8242 99.6385 44.52 99.5172 44.1662L99.5655 45.8586V54.8193H92.725V29.1973H99.7638C102.863 29.1973 105.181 29.8117 106.719 31.0397C108.675 32.6111 109.654 34.8455 109.654 37.7442C109.654 40.8414 108.341 42.9828 105.715 44.1662L110.825 54.8193ZM99.5994 41.0628H100.061C100.852 41.0628 101.511 40.7586 102.039 40.1504C102.566 39.5421 102.829 38.7673 102.829 37.8269C102.829 35.9131 101.835 34.9562 99.846 34.9562H99.5994V41.0628Z" fill="#F2F2F2"/>
</g>
<mask id="mask9_521_36589" style="mask-type:luminance" maskUnits="userSpaceOnUse" x="0" y="0" width="172" height="84">
<path d="M172 0H0V84H172V0Z" fill="white"/>
</mask>
<g mask="url(#mask9_521_36589)">
<path d="M131.28 54.8193H124.176L123.665 51.5669H119.033L118.472 54.8193H111.367L117.482 29.1973H125.889L131.28 54.8193ZM122.857 46.0738L122.413 43.0862C122.401 43.0749 122.38 42.9259 122.347 42.6383C122.325 42.3952 122.21 41.4321 122 39.75C121.978 39.5618 121.951 39.3052 121.918 38.9783C121.885 38.6524 121.841 38.2397 121.786 37.7421L121.572 35.3193C121.549 35.5521 121.52 35.8117 121.481 36.0993C121.441 36.3869 121.4 36.7024 121.357 37.0449C121.28 37.7307 121.226 38.2066 121.193 38.4714C121.16 38.7373 121.137 38.8976 121.127 38.9524L120.648 42.0549L119.956 46.0707H122.857V46.0738Z" fill="#F2F2F2"/>
</g>
<mask id="mask10_521_36589" style="mask-type:luminance" maskUnits="userSpaceOnUse" x="0" y="0" width="172" height="84">
<path d="M172 0H0V84H172V0Z" fill="white"/>
</mask>
<g mask="url(#mask10_521_36589)">
<path d="M144.481 54.8193H132.448V29.1973H139.321V48.6621H144.481V54.8193Z" fill="#F2F2F2"/>
</g>
</g>
<defs>
<clipPath id="clip0_521_36589">
<rect width="172" height="84" fill="white"/>
</clipPath>
</defs>
</svg>
